<svg width="1218" height="591" viewBox="0 0 1218 591" fill="none" xmlns="http://www.w3.org/2000/svg">
<path d="M1165.64 529.032C1165.52 529.276 1165.61 529.579 1165.86 529.707C1173.05 533.477 1180.15 537.496 1187.16 541.768C1194.17 546.039 1201 550.509 1207.65 555.17C1207.88 555.328 1208.19 555.273 1208.35 555.047C1221.55 564.33 1234.04 574.364 1245.79 585.081C1245.61 585.285 1245.62 585.601 1245.83 585.787C1257.91 596.837 1269.23 608.613 1279.75 621.04C1279.93 621.25 1280.25 621.276 1280.46 621.098C1290.78 633.317 1300.35 646.164 1309.15 659.568C1308.92 659.72 1308.85 660.03 1309.01 660.261C1317.91 673.863 1326.03 688.039 1333.34 702.716C1333.47 702.964 1333.77 703.064 1334.01 702.941C1341.1 717.191 1347.42 731.912 1352.99 747.036C1352.73 747.131 1352.6 747.418 1352.69 747.677C1358.27 762.888 1363.08 778.506 1367.1 794.465C1367.17 794.733 1367.44 794.895 1367.71 794.828C1371.58 810.226 1374.72 825.94 1377.12 841.909C1376.85 841.95 1376.66 842.205 1376.7 842.478C1379.09 858.48 1380.75 874.738 1381.66 891.191C1381.67 891.467 1381.91 891.678 1382.18 891.663C1383.04 907.504 1383.21 923.525 1382.67 939.671C1382.4 939.662 1382.17 939.878 1382.16 940.154C1381.61 956.319 1380.36 972.61 1378.4 988.973C1378.36 989.247 1378.56 989.496 1378.83 989.529C1376.93 1005.28 1374.37 1021.09 1371.15 1036.92C1370.88 1036.86 1370.62 1037.03 1370.56 1037.31C1367.32 1053.15 1363.41 1069.01 1358.83 1084.84C1358.76 1085.11 1358.91 1085.39 1359.18 1085.46C1354.76 1100.7 1349.71 1115.9 1344.04 1131.02C1343.78 1130.93 1343.49 1131.06 1343.4 1131.32C1337.71 1146.46 1331.38 1161.52 1324.42 1176.47C1324.31 1176.72 1324.42 1177.02 1324.67 1177.13C1317.96 1191.51 1310.67 1205.77 1302.78 1219.89C1302.54 1219.75 1302.23 1219.84 1302.1 1220.08C1298.13 1227.17 1294 1234.23 1289.73 1241.24C1285.46 1248.26 1281.08 1255.16 1276.6 1261.94C1276.44 1262.17 1276.51 1262.48 1276.74 1262.63C1267.81 1276.12 1258.48 1289.14 1248.79 1301.69C1248.57 1301.52 1248.25 1301.56 1248.08 1301.78C1237.99 1314.82 1227.51 1327.35 1216.66 1339.35C1216.48 1339.56 1216.49 1339.87 1216.7 1340.06C1205.86 1352.04 1194.66 1363.49 1183.16 1374.41C1182.97 1374.2 1182.65 1374.2 1182.45 1374.39C1170.48 1385.72 1158.18 1396.46 1145.58 1406.61C1145.37 1406.78 1145.34 1407.1 1145.51 1407.31C1132.92 1417.44 1120.04 1426.96 1106.92 1435.88C1106.77 1435.65 1106.46 1435.59 1106.23 1435.74C1092.59 1444.99 1078.69 1453.58 1064.57 1461.48C1064.33 1461.61 1064.25 1461.92 1064.38 1462.16C1050.28 1470.04 1035.97 1477.24 1021.5 1483.74C1021.38 1483.49 1021.09 1483.38 1020.84 1483.49C1005.8 1490.23 990.594 1496.22 975.276 1501.43C975.015 1501.52 974.875 1501.8 974.964 1502.06C959.671 1507.25 944.267 1511.67 928.81 1515.3C928.747 1515.03 928.478 1514.86 928.209 1514.92C912.182 1518.67 896.098 1521.56 880.024 1523.58C879.75 1523.61 879.555 1523.86 879.59 1524.14C863.598 1526.13 847.615 1527.26 831.703 1527.5C831.699 1527.22 831.472 1527 831.196 1527.01C814.799 1527.24 798.479 1526.53 782.307 1524.85C782.032 1524.83 781.786 1525.02 781.758 1525.3C765.811 1523.63 750.007 1521.02 734.412 1517.45C734.474 1517.18 734.307 1516.91 734.037 1516.85C718.166 1513.19 702.514 1508.54 687.15 1502.87C686.891 1502.77 686.604 1502.91 686.508 1503.17C671.593 1497.64 656.951 1491.14 642.645 1483.67C642.773 1483.42 642.679 1483.12 642.435 1482.99C635.244 1479.22 628.139 1475.2 621.127 1470.93C614.115 1466.66 607.285 1462.19 600.637 1457.53C600.411 1457.37 600.099 1457.43 599.94 1457.65C586.736 1448.37 574.251 1438.34 562.496 1427.62C562.682 1427.42 562.668 1427.1 562.464 1426.91C550.376 1415.86 539.064 1404.09 528.536 1391.66C528.358 1391.45 528.043 1391.42 527.832 1391.6C517.507 1379.38 507.94 1366.54 499.14 1353.13C499.371 1352.98 499.435 1352.67 499.284 1352.44C490.378 1338.84 482.262 1324.66 474.946 1309.98C474.823 1309.74 474.523 1309.64 474.276 1309.76C467.194 1295.51 460.866 1280.79 455.3 1265.66C455.559 1265.57 455.692 1265.28 455.597 1265.02C450.018 1249.81 445.212 1234.19 441.187 1218.23C441.119 1217.97 440.847 1217.8 440.58 1217.87C436.713 1202.47 433.573 1186.76 431.168 1170.79C431.441 1170.75 431.629 1170.5 431.588 1170.22C429.195 1154.22 427.54 1137.96 426.633 1121.51C426.617 1121.23 426.382 1121.02 426.106 1121.04C425.248 1105.2 425.081 1089.18 425.615 1073.03C425.891 1073.04 426.122 1072.82 426.131 1072.55C426.68 1056.38 427.931 1040.09 429.893 1023.73C429.926 1023.45 429.73 1023.2 429.456 1023.17C431.357 1007.42 433.916 991.613 437.139 975.785C437.409 975.84 437.674 975.665 437.729 975.395C440.969 959.549 444.875 943.686 449.456 927.855C449.532 927.59 449.38 927.313 449.114 927.236C453.534 912.005 458.577 896.804 464.25 881.676C464.508 881.773 464.797 881.643 464.894 881.384C470.584 866.244 476.906 851.179 483.866 836.23C483.982 835.98 483.874 835.683 483.624 835.566C490.329 821.193 497.623 806.928 505.512 792.811C505.753 792.946 506.058 792.86 506.193 792.619C510.164 785.526 514.286 778.47 518.558 771.456C522.831 764.442 527.211 757.543 531.693 750.76C531.845 750.53 531.782 750.22 531.551 750.068C540.477 736.582 549.807 723.558 559.504 711.007C559.722 711.176 560.036 711.136 560.205 710.917C570.296 697.877 580.784 685.349 591.627 673.348C591.812 673.143 591.796 672.827 591.591 672.642C602.432 660.663 613.626 649.209 625.133 638.295C625.323 638.496 625.64 638.504 625.84 638.314C637.807 626.983 650.111 616.236 662.705 606.089C662.92 605.916 662.954 605.601 662.781 605.386C675.368 595.262 688.245 585.736 701.365 576.824C701.52 577.052 701.831 577.112 702.06 576.957C715.7 567.709 729.602 559.125 743.715 551.222C743.956 551.088 744.042 550.783 743.907 550.542C758.01 542.662 772.323 535.461 786.793 528.958C786.906 529.21 787.202 529.323 787.454 529.21C802.49 522.47 817.696 516.483 833.014 511.27C833.275 511.181 833.415 510.897 833.326 510.636C848.619 505.448 864.023 501.031 879.48 497.404C879.542 497.673 879.811 497.84 880.08 497.777C896.108 494.034 912.191 491.141 928.266 489.122C928.54 489.087 928.734 488.837 928.7 488.563C944.692 486.572 960.675 485.444 976.587 485.201C976.59 485.477 976.817 485.698 977.094 485.694C993.491 485.462 1009.81 486.172 1025.98 487.847C1026.26 487.875 1026.5 487.676 1026.53 487.401C1042.48 489.072 1058.28 491.681 1073.88 495.251C1073.82 495.52 1073.98 495.789 1074.25 495.851C1090.12 499.506 1105.78 504.157 1121.14 509.83C1121.4 509.926 1121.69 509.794 1121.78 509.535C1136.7 515.064 1151.34 521.556 1165.64 529.032Z" stroke="#9D5AE3" stroke-linecap="round" stroke-dasharray="48 48"/>
<path d="M1173.56 309.856C1173.43 310.098 1173.51 310.402 1173.75 310.536C1180.94 314.523 1188.07 318.672 1195.15 322.984C1202.23 327.296 1209.19 331.732 1216.03 336.288C1216.26 336.441 1216.57 336.379 1216.72 336.149C1230.27 345.191 1243.34 354.702 1255.93 364.65C1255.76 364.866 1255.8 365.181 1256.02 365.352C1269.02 375.642 1281.51 386.398 1293.47 397.583C1293.67 397.771 1293.99 397.761 1294.18 397.559C1306.04 408.665 1317.38 420.193 1328.2 432.108C1328 432.294 1327.98 432.61 1328.17 432.814C1339.28 445.069 1349.83 457.731 1359.83 470.763C1360 470.982 1360.31 471.024 1360.53 470.856C1370.38 483.722 1379.68 496.948 1388.43 510.496C1388.2 510.645 1388.13 510.955 1388.28 511.187C1397.23 525.064 1405.59 539.277 1413.36 553.789C1413.49 554.032 1413.79 554.124 1414.04 553.994C1421.66 568.258 1428.71 582.81 1435.19 597.61C1434.93 597.72 1434.82 598.015 1434.93 598.268C1441.52 613.376 1447.51 628.742 1452.89 644.327C1452.98 644.588 1453.26 644.727 1453.52 644.637C1458.78 659.911 1463.44 675.394 1467.51 691.049C1467.25 691.118 1467.08 691.391 1467.15 691.658C1471.28 707.597 1474.8 723.713 1477.68 739.967C1477.73 740.239 1477.99 740.42 1478.26 740.372C1481.07 756.259 1483.27 772.277 1484.87 788.388C1484.6 788.416 1484.4 788.66 1484.42 788.935C1486.03 805.302 1487.02 821.765 1487.37 838.286C1487.37 838.562 1487.6 838.781 1487.88 838.776C1488.2 854.891 1487.92 871.061 1487.03 887.248C1486.76 887.233 1486.52 887.444 1486.51 887.72C1485.59 904.117 1484.05 920.533 1481.86 936.929C1481.83 937.203 1482.02 937.455 1482.29 937.491C1480.16 953.451 1477.41 969.392 1474.06 985.28C1473.79 985.223 1473.53 985.395 1473.47 985.665C1470.07 1001.71 1466.05 1017.69 1461.39 1033.59C1461.31 1033.85 1461.47 1034.13 1461.73 1034.21C1457.2 1049.63 1452.08 1064.97 1446.35 1080.19C1446.09 1080.09 1445.8 1080.22 1445.7 1080.48C1439.93 1095.79 1433.54 1110.99 1426.53 1126.04C1426.41 1126.29 1426.52 1126.59 1426.77 1126.7C1419.99 1141.24 1412.63 1155.63 1404.68 1169.85C1404.44 1169.72 1404.13 1169.8 1404 1170.04C1399.99 1177.21 1395.82 1184.34 1391.51 1191.42C1387.2 1198.5 1382.77 1205.47 1378.24 1212.33C1378.09 1212.56 1378.15 1212.87 1378.38 1213.02C1369.39 1226.6 1359.98 1239.74 1350.17 1252.44C1349.96 1252.27 1349.64 1252.31 1349.47 1252.53C1339.32 1265.66 1328.74 1278.31 1317.78 1290.47C1317.6 1290.67 1317.61 1290.99 1317.82 1291.17C1306.92 1303.24 1295.64 1314.83 1284.02 1325.93C1283.83 1325.73 1283.51 1325.72 1283.31 1325.91C1271.32 1337.34 1258.96 1348.25 1246.27 1358.62C1246.05 1358.8 1246.02 1359.11 1246.2 1359.33C1233.62 1369.6 1220.71 1379.34 1207.51 1388.56C1207.35 1388.34 1207.04 1388.28 1206.81 1388.44C1193.24 1397.9 1179.36 1406.8 1165.21 1415.14C1164.97 1415.28 1164.89 1415.58 1165.03 1415.82C1151.06 1424.04 1136.82 1431.7 1122.35 1438.8C1122.23 1438.55 1121.93 1438.45 1121.68 1438.57C1106.84 1445.84 1091.76 1452.52 1076.47 1458.59C1076.22 1458.7 1076.09 1458.99 1076.19 1459.24C1061.14 1465.21 1045.9 1470.6 1030.49 1475.39C1030.41 1475.13 1030.13 1474.98 1029.87 1475.06C1014.1 1479.96 998.171 1484.23 982.114 1487.87C981.844 1487.93 981.675 1488.2 981.736 1488.47C965.959 1492.03 950.06 1494.98 934.077 1497.32C934.037 1497.05 933.784 1496.86 933.51 1496.9C917.196 1499.27 900.794 1501 884.346 1502.07C884.07 1502.08 883.861 1502.32 883.879 1502.6C867.759 1503.64 851.594 1504.04 835.421 1503.81C835.425 1503.54 835.205 1503.31 834.929 1503.3C818.47 1503.06 802.004 1502.14 785.57 1500.56C785.296 1500.53 785.051 1500.74 785.025 1501.01C768.973 1499.45 752.953 1497.25 737.001 1494.4C737.05 1494.12 736.869 1493.86 736.598 1493.82C720.433 1490.91 704.339 1487.34 688.354 1483.09C688.087 1483.02 687.813 1483.17 687.742 1483.44C672.191 1479.29 656.744 1474.5 641.435 1469.05C641.528 1468.79 641.392 1468.51 641.132 1468.42C625.706 1462.91 610.421 1456.75 595.313 1449.92C595.062 1449.8 594.766 1449.91 594.652 1450.17C580.037 1443.54 565.588 1436.29 551.339 1428.39C551.473 1428.15 551.386 1427.85 551.144 1427.71C543.96 1423.73 536.826 1419.58 529.748 1415.27C522.669 1410.95 515.71 1406.52 508.872 1401.96C508.643 1401.81 508.332 1401.87 508.179 1402.1C494.63 1393.06 481.556 1383.55 468.965 1373.6C469.136 1373.38 469.099 1373.07 468.883 1372.9C455.88 1362.61 443.393 1351.85 431.429 1340.67C431.228 1340.48 430.911 1340.49 430.723 1340.69C418.863 1329.58 407.519 1318.06 396.698 1306.14C396.903 1305.96 396.918 1305.64 396.733 1305.44C385.622 1293.18 375.065 1280.52 365.071 1267.49C364.903 1267.27 364.589 1267.23 364.37 1267.39C354.518 1254.53 345.214 1241.3 336.466 1227.75C336.698 1227.6 336.765 1227.29 336.615 1227.06C327.67 1213.19 319.308 1198.97 311.538 1184.46C311.408 1184.22 311.105 1184.13 310.861 1184.26C303.238 1169.99 296.185 1155.44 289.712 1140.64C289.966 1140.53 290.081 1140.23 289.971 1139.98C283.378 1124.87 277.389 1109.51 272.013 1093.92C271.923 1093.66 271.639 1093.52 271.378 1093.61C266.123 1078.34 261.456 1062.86 257.387 1047.2C257.654 1047.13 257.814 1046.86 257.745 1046.59C253.615 1030.65 250.103 1014.54 247.219 998.283C247.171 998.011 246.912 997.829 246.64 997.878C243.834 981.991 241.628 965.973 240.029 949.861C240.303 949.834 240.504 949.589 240.477 949.315C238.865 932.948 237.881 916.484 237.534 899.963C237.528 899.687 237.299 899.468 237.023 899.474C236.696 883.359 236.974 867.189 237.865 851.001C238.141 851.016 238.377 850.805 238.393 850.53C239.308 834.132 240.853 817.717 243.036 801.32C243.072 801.046 242.88 800.795 242.606 800.759C244.744 784.799 247.485 768.858 250.839 752.97C251.109 753.027 251.374 752.854 251.431 752.584C254.83 736.544 258.853 720.558 263.508 704.663C263.586 704.398 263.434 704.12 263.169 704.043C267.699 688.62 272.824 673.283 278.551 658.064C278.809 658.161 279.098 658.031 279.195 657.773C284.973 642.455 291.362 627.257 298.37 612.212C298.486 611.961 298.378 611.664 298.128 611.547C304.912 597.011 312.273 582.618 320.219 568.399C320.46 568.533 320.764 568.447 320.899 568.207C324.913 561.035 329.076 553.907 333.389 546.828C337.702 539.748 342.126 532.78 346.657 525.923C346.81 525.693 346.746 525.383 346.516 525.231C355.507 511.648 364.921 498.505 374.726 485.81C374.944 485.978 375.258 485.938 375.427 485.72C385.582 472.592 396.156 459.944 407.118 447.784C407.303 447.579 407.286 447.262 407.081 447.078C417.978 435.007 429.256 423.419 440.883 412.32C441.073 412.519 441.39 412.527 441.59 412.337C453.579 400.909 465.939 390.002 478.633 379.625C478.847 379.45 478.879 379.135 478.704 378.921C491.284 368.654 504.192 358.906 517.393 349.687C517.551 349.913 517.863 349.969 518.09 349.811C531.658 340.35 545.537 331.448 559.688 323.114C559.926 322.974 560.005 322.667 559.865 322.429C573.841 314.212 588.082 306.549 602.552 299.447C602.673 299.695 602.973 299.798 603.221 299.676C618.061 292.408 633.142 285.731 648.424 279.656C648.681 279.554 648.806 279.263 648.704 279.007C663.755 273.037 679 267.651 694.404 262.858C694.486 263.121 694.766 263.269 695.03 263.187C710.796 258.294 726.728 254.022 742.786 250.382C743.055 250.321 743.224 250.053 743.163 249.784C758.94 246.22 774.839 243.265 790.822 240.929C790.862 241.202 791.115 241.391 791.389 241.352C807.703 238.98 824.105 237.254 840.553 236.183C840.829 236.165 841.038 235.927 841.02 235.651C857.14 234.614 873.306 234.207 889.478 234.438C889.474 234.714 889.694 234.942 889.97 234.946C906.429 235.194 922.895 236.106 939.329 237.689C939.604 237.716 939.848 237.514 939.874 237.239C955.926 238.799 971.946 241.001 987.898 243.853C987.849 244.125 988.03 244.385 988.301 244.434C1004.47 247.338 1020.56 250.911 1036.55 255.163C1036.81 255.234 1037.09 255.075 1037.16 254.808C1052.71 258.958 1068.16 263.751 1083.46 269.195C1083.37 269.455 1083.51 269.741 1083.77 269.834C1099.19 275.335 1114.48 281.498 1129.59 288.332C1129.84 288.446 1130.13 288.335 1130.25 288.083C1144.86 294.709 1159.31 301.964 1173.56 309.856Z" stroke="#9D5AE3" stroke-linecap="round" stroke-dasharray="48 48"/>
</svg>
