<svg width="1051" height="1706" viewBox="0 0 1051 1706" fill="none" xmlns="http://www.w3.org/2000/svg">
<path d="M360.722 1246.77C360.554 1246.55 360.24 1246.51 360.021 1246.68C353.58 1251.62 346.95 1256.38 340.129 1260.95C333.309 1265.52 326.384 1269.85 319.363 1273.92C319.124 1274.06 319.043 1274.37 319.182 1274.61C305.213 1282.69 290.865 1289.81 276.204 1295.98C276.097 1295.73 275.804 1295.61 275.549 1295.72C260.445 1302.05 245.009 1307.37 229.311 1311.71C229.044 1311.78 228.888 1312.06 228.962 1312.33C213.537 1316.57 197.86 1319.86 182 1322.22C181.96 1321.94 181.706 1321.75 181.433 1321.79C165.348 1324.17 149.074 1325.58 132.682 1326.06C132.406 1326.07 132.189 1326.3 132.197 1326.58C116.29 1327.02 100.273 1326.58 84.2096 1325.29C84.2321 1325.01 84.0273 1324.77 83.752 1324.75C67.605 1323.43 51.4115 1321.23 35.2371 1318.18C34.9656 1318.13 34.7043 1318.31 34.6531 1318.58C19.054 1315.63 3.47343 1311.88 -12.0298 1307.36C-11.9523 1307.1 -12.1043 1306.82 -12.3693 1306.74C-27.8979 1302.19 -43.3487 1296.87 -58.6627 1290.79C-58.9193 1290.69 -59.21 1290.81 -59.3119 1291.07C-74.0498 1285.2 -88.6602 1278.62 -103.091 1271.36C-102.966 1271.11 -103.065 1270.81 -103.312 1270.69C-117.754 1263.4 -132.014 1255.43 -146.042 1246.78C-146.277 1246.63 -146.585 1246.71 -146.73 1246.94C-160.223 1238.61 -173.5 1229.65 -186.513 1220.08C-186.35 1219.85 -186.397 1219.54 -186.619 1219.38C-199.641 1209.78 -212.399 1199.58 -224.844 1188.78C-225.053 1188.6 -225.368 1188.62 -225.549 1188.83C-237.518 1178.42 -249.197 1167.46 -260.546 1155.96C-260.349 1155.77 -260.347 1155.45 -260.541 1155.26C-271.893 1143.73 -282.913 1131.67 -293.558 1119.08C-293.737 1118.87 -294.052 1118.84 -294.263 1119.02C-304.494 1106.9 -314.378 1094.29 -323.879 1081.21C-323.655 1081.04 -323.605 1080.73 -323.767 1080.51C-328.538 1073.93 -333.212 1067.22 -337.784 1060.4C-342.357 1053.58 -346.78 1046.71 -351.054 1039.79C-351.199 1039.56 -351.507 1039.48 -351.742 1039.63C-360.235 1025.87 -368.139 1011.93 -375.46 997.861C-375.215 997.734 -375.119 997.432 -375.247 997.187C-382.846 982.553 -389.814 967.775 -396.154 952.896C-396.262 952.642 -396.556 952.524 -396.81 952.632C-403.131 937.764 -408.827 922.795 -413.902 907.769C-413.64 907.681 -413.5 907.398 -413.588 907.136C-418.848 891.518 -423.437 875.839 -427.36 860.148C-427.427 859.88 -427.698 859.717 -427.966 859.784C-431.871 844.11 -435.111 828.424 -437.692 812.774C-437.419 812.73 -437.234 812.472 -437.279 812.2C-439.946 795.938 -441.901 779.716 -443.149 763.589C-443.17 763.314 -443.41 763.108 -443.686 763.129C-444.918 747.021 -445.444 731.008 -445.272 715.145C-444.996 715.148 -444.769 714.927 -444.766 714.651C-444.571 698.174 -443.621 681.859 -441.922 665.769C-441.893 665.494 -442.092 665.248 -442.367 665.219C-440.655 649.161 -438.197 633.326 -435 617.774C-434.73 617.83 -434.465 617.656 -434.409 617.386C-431.078 601.267 -426.952 585.456 -422.036 570.018C-421.953 569.755 -422.098 569.474 -422.361 569.39C-417.455 554.04 -411.769 539.059 -405.31 524.516C-405.058 524.628 -404.762 524.515 -404.65 524.262C-397.976 509.283 -390.481 494.769 -382.171 480.794C-382.03 480.556 -382.108 480.249 -382.346 480.108C-374.134 466.336 -365.131 453.088 -355.345 440.433C-355.126 440.602 -354.812 440.562 -354.643 440.344C-344.663 427.473 -333.87 415.22 -322.271 403.657C-322.076 403.462 -322.075 403.146 -322.27 402.95C-310.99 391.735 -298.951 381.171 -286.16 371.325C-285.992 371.544 -285.678 371.585 -285.459 371.417C-279.019 366.473 -272.388 361.712 -265.568 357.141C-258.748 352.57 -251.823 348.248 -244.802 344.17C-244.563 344.032 -244.482 343.726 -244.62 343.487C-230.652 335.399 -216.304 328.28 -201.642 322.111C-201.535 322.365 -201.243 322.485 -200.988 322.378C-185.884 316.046 -170.447 310.721 -154.749 306.383C-154.483 306.31 -154.327 306.035 -154.4 305.769C-138.975 301.528 -123.299 298.237 -107.439 295.878C-107.399 296.151 -107.145 296.339 -106.871 296.299C-90.7866 293.926 -74.5129 292.511 -58.1208 292.033C-57.8449 292.025 -57.6277 291.795 -57.6356 291.519C-41.7286 291.074 -25.7114 291.51 -9.64826 292.807C-9.67064 293.082 -9.46585 293.324 -9.19072 293.346C6.95637 294.668 23.1498 296.862 39.3243 299.909C39.5956 299.96 39.8569 299.782 39.9082 299.51C55.5074 302.465 71.0879 306.212 86.5911 310.734C86.5137 310.999 86.6657 311.276 86.9306 311.354C102.459 315.899 117.91 321.222 133.224 327.306C133.481 327.408 133.771 327.283 133.873 327.026C148.611 332.897 163.221 339.472 177.652 346.734C177.528 346.981 177.627 347.281 177.873 347.406C192.315 354.69 206.576 362.665 220.603 371.315C220.838 371.459 221.146 371.386 221.291 371.151C234.785 379.487 248.062 388.448 261.075 398.018C260.911 398.24 260.958 398.553 261.181 398.717C274.203 408.31 286.96 418.515 299.405 429.318C299.614 429.499 299.93 429.476 300.111 429.268C312.079 439.674 323.759 450.632 335.107 462.131C334.911 462.325 334.908 462.642 335.102 462.838C346.454 474.359 357.474 486.422 368.12 499.013C368.298 499.224 368.613 499.251 368.824 499.073C379.055 511.192 388.939 523.801 398.44 536.888C398.216 537.05 398.167 537.362 398.329 537.586C403.1 544.168 407.774 550.871 412.346 557.694C416.918 564.516 421.341 571.388 425.615 578.303C425.76 578.537 426.068 578.61 426.303 578.465C434.796 592.228 442.7 606.163 450.021 620.233C449.776 620.36 449.681 620.662 449.808 620.907C457.407 635.541 464.375 650.319 470.715 665.198C470.823 665.452 471.117 665.57 471.371 665.462C477.693 680.33 483.389 695.299 488.463 710.324C488.202 710.413 488.061 710.696 488.149 710.958C493.41 726.576 497.999 742.255 501.921 757.946C501.988 758.214 502.26 758.376 502.528 758.309C506.432 773.984 509.672 789.67 512.253 805.32C511.98 805.364 511.796 805.621 511.84 805.894C514.508 822.156 516.463 838.378 517.71 854.505C517.731 854.78 517.972 854.986 518.247 854.965C519.479 871.073 520.006 887.086 519.833 902.949C519.557 902.946 519.33 903.167 519.327 903.443C519.133 919.92 518.182 936.235 516.483 952.325C516.454 952.6 516.653 952.846 516.928 952.875C515.216 968.933 512.759 984.768 509.562 1000.32C509.291 1000.26 509.027 1000.44 508.971 1000.71C505.64 1016.83 501.513 1032.64 496.598 1048.08C496.514 1048.34 496.659 1048.62 496.923 1048.7C492.016 1064.05 486.33 1079.03 479.871 1093.58C479.619 1093.47 479.323 1093.58 479.211 1093.83C472.538 1108.81 465.042 1123.33 456.733 1137.3C456.592 1137.54 456.67 1137.84 456.907 1137.99C448.695 1151.76 439.693 1165.01 429.906 1177.66C429.688 1177.49 429.374 1177.53 429.204 1177.75C419.225 1190.62 408.431 1202.87 396.833 1214.44C396.637 1214.63 396.637 1214.95 396.832 1215.14C385.552 1226.36 373.513 1236.92 360.722 1246.77Z" stroke="#9D5AE3" stroke-linecap="round" stroke-dasharray="48 48"/>
<path d="M556.325 1345.97C556.162 1345.74 555.849 1345.69 555.626 1345.86C548.992 1350.7 542.231 1355.44 535.346 1360.05C528.46 1364.66 521.513 1369.12 514.508 1373.41C514.272 1373.56 514.198 1373.86 514.343 1374.1C500.448 1382.6 486.327 1390.47 472.012 1397.73C471.888 1397.48 471.587 1397.38 471.341 1397.51C456.543 1404.99 441.538 1411.81 426.365 1417.97C426.109 1418.07 425.985 1418.36 426.089 1418.62C411.03 1424.72 395.805 1430.18 380.448 1435C380.366 1434.73 380.085 1434.59 379.822 1434.67C364.036 1439.61 348.111 1443.87 332.087 1447.47C331.818 1447.54 331.648 1447.8 331.709 1448.07C315.895 1451.61 299.985 1454.5 284.017 1456.76C283.978 1456.48 283.725 1456.29 283.452 1456.33C267.102 1458.62 250.691 1460.25 234.259 1461.21C233.983 1461.22 233.772 1461.46 233.789 1461.74C217.641 1462.67 201.474 1462.96 185.323 1462.62C185.329 1462.34 185.111 1462.12 184.834 1462.11C168.355 1461.75 151.894 1460.74 135.492 1459.07C135.217 1459.04 134.972 1459.24 134.944 1459.52C118.875 1457.88 102.863 1455.61 86.9463 1452.73C86.9957 1452.46 86.8155 1452.2 86.5438 1452.15C70.3437 1449.21 54.2422 1445.63 38.2793 1441.42C38.0122 1441.35 37.7387 1441.51 37.6683 1441.78C22.0714 1437.66 6.60704 1432.94 -8.68751 1427.62C-8.59676 1427.36 -8.73446 1427.08 -8.99527 1426.99C-24.5265 1421.58 -39.882 1415.56 -55.0228 1408.94C-55.2757 1408.83 -55.5705 1408.95 -55.6811 1409.2C-70.4448 1402.73 -85.0039 1395.69 -99.3222 1388.08C-99.1925 1387.84 -99.2849 1387.54 -99.5288 1387.41C-114.027 1379.69 -128.277 1371.4 -142.243 1362.54C-142.476 1362.39 -142.785 1362.46 -142.933 1362.69C-156.521 1354.05 -169.838 1344.87 -182.851 1335.16C-182.685 1334.93 -182.731 1334.62 -182.952 1334.46C-196.083 1324.64 -208.903 1314.28 -221.375 1303.38C-221.583 1303.2 -221.899 1303.22 -222.081 1303.42C-234.177 1292.84 -245.946 1281.75 -257.354 1270.16C-257.157 1269.97 -257.155 1269.65 -257.348 1269.45C-268.825 1257.78 -279.937 1245.6 -290.651 1232.92C-290.829 1232.71 -291.144 1232.69 -291.355 1232.87C-301.7 1220.61 -311.673 1207.88 -321.244 1194.7C-321.02 1194.54 -320.97 1194.23 -321.132 1194C-325.956 1187.35 -330.677 1180.58 -335.292 1173.69C-339.907 1166.81 -344.375 1159.86 -348.696 1152.87C-348.841 1152.64 -349.149 1152.57 -349.384 1152.71C-357.937 1138.85 -365.914 1124.79 -373.32 1110.56C-373.075 1110.43 -372.98 1110.13 -373.107 1109.88C-380.759 1095.16 -387.799 1080.25 -394.234 1065.2C-394.343 1064.94 -394.637 1064.82 -394.891 1064.93C-401.271 1049.97 -407.055 1034.87 -412.247 1019.66C-411.986 1019.57 -411.846 1019.29 -411.935 1019.03C-417.274 1003.35 -421.984 987.551 -426.074 971.673C-426.142 971.406 -426.415 971.245 -426.682 971.314C-430.72 955.586 -434.149 939.778 -436.974 923.926C-436.702 923.877 -436.521 923.618 -436.569 923.346C-439.459 907.059 -441.713 890.726 -443.337 874.383C-443.364 874.109 -443.609 873.908 -443.884 873.935C-445.474 857.801 -446.451 841.659 -446.822 825.544C-446.546 825.538 -446.327 825.309 -446.333 825.033C-446.7 808.513 -446.429 792.022 -445.527 775.601C-445.512 775.325 -445.723 775.089 -445.999 775.074C-445.098 758.908 -443.587 742.81 -441.471 726.817C-441.197 726.853 -440.946 726.661 -440.909 726.387C-438.731 710.024 -435.92 693.771 -432.483 677.668C-432.425 677.398 -432.598 677.132 -432.868 677.075C-429.479 661.259 -425.486 645.588 -420.897 630.101C-420.632 630.18 -420.354 630.029 -420.275 629.764C-415.579 613.961 -410.26 598.35 -404.327 582.972C-404.228 582.714 -404.356 582.425 -404.614 582.325C-398.787 567.259 -392.371 552.416 -385.371 537.835C-385.123 537.954 -384.824 537.85 -384.704 537.601C-377.569 522.767 -369.829 508.205 -361.493 493.954C-361.354 493.716 -361.434 493.41 -361.672 493.27C-353.518 479.357 -344.795 465.741 -335.509 452.46C-335.283 452.619 -334.971 452.564 -334.813 452.337C-325.391 438.885 -315.392 425.778 -304.822 413.055C-304.645 412.842 -304.674 412.527 -304.887 412.351C-294.592 399.979 -283.757 387.971 -272.389 376.362C-272.192 376.555 -271.875 376.552 -271.682 376.355C-260.213 364.663 -248.203 353.377 -235.657 342.535C-235.448 342.354 -235.425 342.039 -235.606 341.83C-223.456 331.347 -210.806 321.279 -197.661 311.659C-197.498 311.882 -197.185 311.931 -196.962 311.768C-190.328 306.921 -183.568 302.188 -176.682 297.574C-169.797 292.959 -162.849 288.506 -155.844 284.212C-155.609 284.068 -155.535 283.76 -155.679 283.524C-141.784 275.023 -127.663 267.15 -113.349 259.898C-113.224 260.144 -112.923 260.243 -112.677 260.118C-97.8789 252.636 -82.8747 245.818 -67.7007 239.656C-67.4449 239.552 -67.3217 239.26 -67.4256 239.004C-52.3667 232.903 -37.1412 227.447 -21.7847 222.627C-21.7022 222.891 -21.4218 223.038 -21.1582 222.955C-5.37176 218.016 10.5527 213.75 26.5766 210.149C26.846 210.089 27.0154 209.821 26.9548 209.552C42.7684 206.012 58.6783 203.12 74.6472 200.867C74.6855 201.141 74.9383 201.331 75.2118 201.293C91.5613 199 107.972 197.377 124.405 196.417C124.681 196.401 124.891 196.164 124.875 195.889C141.022 194.958 157.19 194.666 173.34 195.004C173.334 195.28 173.553 195.509 173.829 195.515C190.309 195.874 206.77 196.889 223.172 198.553C223.446 198.581 223.692 198.38 223.72 198.106C239.788 199.749 255.8 202.013 271.717 204.891C271.668 205.163 271.848 205.423 272.12 205.472C288.32 208.415 304.422 211.993 320.385 216.2C320.652 216.27 320.925 216.111 320.995 215.844C336.592 219.966 352.057 224.688 367.351 230.001C367.261 230.261 367.398 230.546 367.659 230.637C383.19 236.045 398.546 242.064 413.687 248.684C413.94 248.794 414.234 248.679 414.345 248.426C429.109 254.895 443.668 261.935 457.986 269.54C457.856 269.783 457.949 270.086 458.192 270.216C472.691 277.93 486.941 286.224 500.906 295.089C501.14 295.237 501.449 295.168 501.597 294.934C515.185 303.574 528.502 312.755 541.514 322.468C541.349 322.69 541.394 323.003 541.615 323.168C554.747 332.987 567.567 343.349 580.039 354.247C580.247 354.429 580.563 354.407 580.745 354.199C592.841 364.785 604.609 375.875 616.018 387.463C615.821 387.656 615.819 387.973 616.012 388.17C627.489 399.844 638.601 412.023 649.314 424.7C649.492 424.911 649.808 424.937 650.019 424.759C660.364 437.019 670.337 449.742 679.907 462.923C679.684 463.085 679.634 463.398 679.796 463.621C684.62 470.275 689.341 477.046 693.956 483.932C698.571 490.818 703.038 497.759 707.359 504.75C707.504 504.985 707.812 505.058 708.047 504.913C716.6 518.776 724.577 532.837 731.984 547.066C731.739 547.193 731.643 547.495 731.771 547.74C739.423 562.468 746.463 577.375 752.898 592.429C753.007 592.683 753.301 592.801 753.554 592.692C759.935 607.649 765.718 622.75 770.911 637.963C770.65 638.052 770.51 638.336 770.599 638.597C775.937 654.276 780.648 670.073 784.737 685.951C784.806 686.218 785.079 686.379 785.346 686.31C789.384 702.038 792.812 717.846 795.638 733.698C795.366 733.747 795.185 734.006 795.233 734.278C798.123 750.565 800.377 766.898 802 783.241C802.028 783.515 802.273 783.716 802.547 783.689C804.138 799.823 805.115 815.965 805.486 832.08C805.21 832.086 804.991 832.315 804.997 832.591C805.364 849.111 805.093 865.602 804.191 882.023C804.176 882.299 804.387 882.535 804.663 882.55C803.762 898.716 802.251 914.814 800.135 930.807C799.861 930.771 799.609 930.963 799.573 931.237C797.395 947.6 794.584 963.854 791.147 979.956C791.089 980.226 791.261 980.492 791.532 980.549C788.142 996.365 784.15 1012.04 779.561 1027.52C779.296 1027.44 779.018 1027.6 778.939 1027.86C774.242 1043.66 768.924 1059.27 762.991 1074.65C762.891 1074.91 763.02 1075.2 763.277 1075.3C757.451 1090.37 751.034 1105.21 744.035 1119.79C743.786 1119.67 743.488 1119.77 743.368 1120.02C736.233 1134.86 728.493 1149.42 720.157 1163.67C720.018 1163.91 720.098 1164.21 720.336 1164.35C712.182 1178.27 703.458 1191.88 694.173 1205.16C693.947 1205.01 693.635 1205.06 693.476 1205.29C684.055 1218.74 674.055 1231.85 663.485 1244.57C663.309 1244.78 663.338 1245.1 663.55 1245.27C653.255 1257.64 642.42 1269.65 631.053 1281.26C630.855 1281.07 630.539 1281.07 630.345 1281.27C618.877 1292.96 606.867 1304.25 594.321 1315.09C594.112 1315.27 594.089 1315.59 594.27 1315.79C582.12 1326.28 569.47 1336.35 556.325 1345.97Z" stroke="#9D5AE3" stroke-linecap="round" stroke-dasharray="48 48"/>
<path d="M180.451 1077.18C180.28 1076.97 179.965 1076.93 179.749 1077.1C173.228 1082.28 166.459 1087.23 159.443 1091.93C152.426 1096.63 145.278 1101.01 138.01 1105.07C137.769 1105.21 137.683 1105.51 137.818 1105.75C123.311 1113.83 108.335 1120.65 93.0031 1126.24C92.9089 1125.98 92.6222 1125.85 92.3626 1125.94C76.5615 1131.67 60.3834 1136.09 43.9524 1139.24C43.6812 1139.29 43.5035 1139.56 43.5555 1139.83C27.4321 1142.89 11.0674 1144.73 -5.42151 1145.38C-5.43199 1145.11 -5.66418 1144.89 -5.94015 1144.9C-22.5838 1145.53 -39.3537 1144.95 -56.1292 1143.19C-56.4039 1143.16 -56.6499 1143.36 -56.6788 1143.63C-72.901 1141.9 -89.1266 1139.07 -105.247 1135.16C-105.181 1134.9 -105.346 1134.63 -105.614 1134.56C-121.744 1130.63 -137.768 1125.62 -153.577 1119.57C-153.835 1119.47 -154.124 1119.6 -154.222 1119.86C-169.418 1114.02 -184.414 1107.21 -199.111 1099.47C-198.982 1099.23 -199.076 1098.92 -199.32 1098.79C-213.978 1091.05 -228.339 1082.37 -242.307 1072.78C-242.534 1072.62 -242.846 1072.68 -243.002 1072.91C-256.404 1063.68 -269.442 1053.62 -282.031 1042.74C-281.85 1042.54 -281.873 1042.22 -282.081 1042.04C-294.6 1031.2 -306.672 1019.56 -318.215 1007.13C-318.403 1006.93 -318.719 1006.92 -318.921 1007.1C-329.964 995.189 -340.52 982.557 -350.516 969.228C-350.295 969.063 -350.25 968.75 -350.416 968.528C-355.407 961.859 -360.258 955.015 -364.959 948C-369.661 940.985 -374.146 933.896 -378.418 926.744C-378.559 926.507 -378.866 926.43 -379.103 926.571C-387.631 912.259 -395.301 897.693 -402.124 882.95C-401.873 882.834 -401.763 882.537 -401.879 882.287C-408.986 866.886 -415.166 851.293 -420.432 835.595C-420.52 835.333 -420.803 835.192 -421.065 835.28C-426.338 819.502 -430.688 803.618 -434.125 787.715C-433.855 787.657 -433.683 787.391 -433.741 787.121C-437.302 770.557 -439.873 753.973 -441.464 737.471C-441.491 737.196 -441.735 736.995 -442.01 737.021C-443.586 720.483 -444.179 704.026 -443.804 687.751C-443.528 687.758 -443.298 687.54 -443.292 687.264C-442.88 670.341 -441.419 653.617 -438.922 637.204C-438.881 636.931 -439.068 636.676 -439.341 636.634C-436.825 620.24 -433.277 604.156 -428.709 588.494C-428.444 588.572 -428.166 588.42 -428.089 588.155C-423.344 571.968 -417.507 556.236 -410.596 541.082C-410.481 540.83 -410.592 540.534 -410.843 540.419C-403.974 525.415 -396.049 510.98 -387.085 497.232C-386.854 497.383 -386.544 497.318 -386.393 497.087C-377.234 483.087 -366.993 469.804 -355.686 457.368C-355.501 457.164 -355.516 456.848 -355.72 456.662C-344.723 444.606 -332.724 433.346 -319.735 423C-319.564 423.216 -319.249 423.252 -319.033 423.08C-312.513 417.903 -305.743 412.956 -298.727 408.254C-291.711 403.552 -284.562 399.171 -277.295 395.109C-277.054 394.974 -276.968 394.669 -277.102 394.428C-262.595 386.349 -247.619 379.53 -232.287 373.943C-232.193 374.202 -231.906 374.336 -231.647 374.242C-215.846 368.512 -199.668 364.089 -183.237 360.94C-182.966 360.888 -182.788 360.626 -182.84 360.355C-166.716 357.29 -150.352 355.449 -133.863 354.799C-133.852 355.074 -133.62 355.289 -133.344 355.279C-116.7 354.647 -99.9305 355.23 -83.155 356.995C-82.8805 357.023 -82.6346 356.824 -82.6055 356.55C-66.3834 358.279 -50.1578 361.111 -34.0377 365.017C-34.1028 365.285 -33.9384 365.555 -33.6702 365.621C-17.5399 369.551 -1.51593 374.557 14.2924 380.61C14.5502 380.708 14.8392 380.579 14.938 380.322C30.134 386.161 45.1293 392.967 59.827 400.711C59.6982 400.955 59.7915 401.257 60.0356 401.386C74.694 409.132 89.0551 417.813 103.022 427.404C103.25 427.561 103.561 427.503 103.717 427.275C117.119 436.5 130.157 446.562 142.746 457.437C142.566 457.646 142.588 457.961 142.797 458.142C155.315 468.98 167.388 480.624 178.93 493.052C179.118 493.254 179.434 493.266 179.637 493.078C190.679 504.993 201.236 517.625 211.232 530.953C211.011 531.119 210.966 531.432 211.131 531.653C216.123 538.322 220.973 545.166 225.675 552.181C230.376 559.197 234.862 566.285 239.133 573.437C239.275 573.674 239.582 573.751 239.819 573.61C248.347 587.923 256.017 602.488 262.839 617.231C262.589 617.347 262.479 617.644 262.595 617.895C269.701 633.295 275.882 648.888 281.147 664.586C281.235 664.848 281.519 664.989 281.781 664.902C287.053 680.68 291.403 696.564 294.841 712.466C294.571 712.524 294.399 712.79 294.457 713.06C298.018 729.625 300.588 746.208 302.18 762.71C302.207 762.985 302.451 763.187 302.726 763.16C304.301 779.698 304.895 796.155 304.519 812.43C304.243 812.423 304.014 812.642 304.007 812.918C303.596 829.84 302.135 846.564 299.638 862.977C299.596 863.25 299.784 863.505 300.057 863.547C297.541 879.942 293.993 896.026 289.425 911.687C289.16 911.61 288.882 911.761 288.804 912.026C284.059 928.213 278.223 943.946 271.312 959.1C271.197 959.351 271.308 959.647 271.559 959.762C264.689 974.766 256.765 989.202 247.801 1002.95C247.57 1002.8 247.26 1002.86 247.109 1003.09C237.95 1017.09 227.709 1030.38 216.402 1042.81C216.216 1043.02 216.231 1043.33 216.436 1043.52C205.439 1055.58 193.439 1066.84 180.451 1077.18Z" stroke="#9D5AE3" stroke-linecap="round" stroke-dasharray="48 48"/>
</svg>
