<svg width="159" height="184" viewBox="0 0 159 184" fill="none" xmlns="http://www.w3.org/2000/svg">
<rect width="158.992" height="136.055" fill="#0F1629" fill-opacity="0.5"/>
<path d="M86.5309 3.51923C83.7803 -1.17308 75.2266 -1.17308 72.476 3.51923L0.929588 125.49C0.28554 126.584 -0.0337519 127.809 0.00282362 129.047C0.0393991 130.284 0.430594 131.492 1.13829 132.553C1.84599 133.614 2.84606 134.491 4.04104 135.099C5.23603 135.707 6.58518 136.025 7.95704 136.023H151.05C152.421 136.026 153.769 135.707 154.963 135.1C156.157 134.492 157.157 133.615 157.864 132.555C158.571 131.495 158.961 130.288 158.997 129.051C159.033 127.814 158.714 126.59 158.069 125.498L86.5309 3.51923ZM87.453 114.499H71.5538V100.149H87.453V114.499ZM71.5538 85.7996V49.9257H87.453L87.461 85.7996H71.5538Z" fill="#FF0000"/>
<path d="M35.56 160.56V164.01H42.31V168.48H35.56V172.29H43.21V177H29.68V155.85H43.21V160.56H35.56ZM56.8255 177L52.6255 169.2H51.9955V177H46.1155V155.85H55.3855C57.0855 155.85 58.5255 156.15 59.7055 156.75C60.8855 157.33 61.7755 158.14 62.3755 159.18C62.9755 160.2 63.2755 161.35 63.2755 162.63C63.2755 164.07 62.8755 165.34 62.0755 166.44C61.2955 167.52 60.1455 168.29 58.6255 168.75L63.3955 177H56.8255ZM51.9955 165.18H54.9055C55.7055 165.18 56.3055 164.99 56.7055 164.61C57.1055 164.23 57.3055 163.68 57.3055 162.96C57.3055 162.28 57.0955 161.75 56.6755 161.37C56.2755 160.97 55.6855 160.77 54.9055 160.77H51.9955V165.18ZM76.6595 177L72.4595 169.2H71.8295V177H65.9495V155.85H75.2195C76.9195 155.85 78.3595 156.15 79.5395 156.75C80.7195 157.33 81.6095 158.14 82.2095 159.18C82.8095 160.2 83.1095 161.35 83.1095 162.63C83.1095 164.07 82.7095 165.34 81.9095 166.44C81.1295 167.52 79.9795 168.29 78.4595 168.75L83.2295 177H76.6595ZM71.8295 165.18H74.7395C75.5395 165.18 76.1395 164.99 76.5395 164.61C76.9395 164.23 77.1395 163.68 77.1395 162.96C77.1395 162.28 76.9295 161.75 76.5095 161.37C76.1095 160.97 75.5195 160.77 74.7395 160.77H71.8295V165.18ZM95.9235 177.21C93.9435 177.21 92.1235 176.75 90.4635 175.83C88.8035 174.89 87.4835 173.6 86.5035 171.96C85.5435 170.3 85.0635 168.43 85.0635 166.35C85.0635 164.27 85.5435 162.41 86.5035 160.77C87.4835 159.11 88.8035 157.82 90.4635 156.9C92.1235 155.98 93.9435 155.52 95.9235 155.52C97.9235 155.52 99.7435 155.98 101.384 156.9C103.044 157.82 104.354 159.11 105.314 160.77C106.274 162.41 106.754 164.27 106.754 166.35C106.754 168.43 106.274 170.3 105.314 171.96C104.354 173.6 103.044 174.89 101.384 175.83C99.7235 176.75 97.9035 177.21 95.9235 177.21ZM95.9235 171.75C97.4235 171.75 98.6035 171.26 99.4635 170.28C100.344 169.3 100.784 167.99 100.784 166.35C100.784 164.67 100.344 163.35 99.4635 162.39C98.6035 161.41 97.4235 160.92 95.9235 160.92C94.4035 160.92 93.2135 161.41 92.3535 162.39C91.4935 163.35 91.0635 164.67 91.0635 166.35C91.0635 168.01 91.4935 169.33 92.3535 170.31C93.2135 171.27 94.4035 171.75 95.9235 171.75ZM120.107 177L115.907 169.2H115.277V177H109.397V155.85H118.667C120.367 155.85 121.807 156.15 122.987 156.75C124.167 157.33 125.057 158.14 125.657 159.18C126.257 160.2 126.557 161.35 126.557 162.63C126.557 164.07 126.157 165.34 125.357 166.44C124.577 167.52 123.427 168.29 121.907 168.75L126.677 177H120.107ZM115.277 165.18H118.187C118.987 165.18 119.587 164.99 119.987 164.61C120.387 164.23 120.587 163.68 120.587 162.96C120.587 162.28 120.377 161.75 119.957 161.37C119.557 160.97 118.967 160.77 118.187 160.77H115.277V165.18Z" fill="#FF0000"/>
</svg>
