<svg width="215" height="215" viewBox="0 0 215 215" fill="none" xmlns="http://www.w3.org/2000/svg">
<path d="M139.129 85.3785L116.999 107.5L139.129 129.621C139.753 130.246 140.248 130.987 140.586 131.802C140.924 132.618 141.098 133.492 141.098 134.375C141.098 135.258 140.924 136.132 140.586 136.948C140.248 137.763 139.753 138.504 139.129 139.129C138.504 139.753 137.763 140.248 136.948 140.586C136.132 140.924 135.258 141.097 134.375 141.097C133.492 141.097 132.618 140.924 131.802 140.586C130.987 140.248 130.246 139.753 129.622 139.129L107.5 116.999L85.3786 139.129C84.7543 139.753 84.0132 140.248 83.1976 140.586C82.382 140.924 81.5078 141.097 80.625 141.097C79.7422 141.097 78.8681 140.924 78.0524 140.586C77.2368 140.248 76.4958 139.753 75.8715 139.129C75.2473 138.504 74.7521 137.763 74.4143 136.948C74.0764 136.132 73.9025 135.258 73.9025 134.375C73.9025 133.492 74.0764 132.618 74.4143 131.802C74.7521 130.987 75.2473 130.246 75.8715 129.621L98.0014 107.5L75.8715 85.3785C74.6108 84.1178 73.9025 82.4079 73.9025 80.625C73.9025 78.8421 74.6108 77.1322 75.8715 75.8715C77.1322 74.6108 78.8421 73.9025 80.625 73.9025C82.4079 73.9025 84.1178 74.6108 85.3786 75.8715L107.5 98.0014L129.622 75.8715C130.246 75.2472 130.987 74.7521 131.802 74.4142C132.618 74.0764 133.492 73.9025 134.375 73.9025C135.258 73.9025 136.132 74.0764 136.948 74.4142C137.763 74.7521 138.504 75.2472 139.129 75.8715C139.753 76.4957 140.248 77.2368 140.586 78.0524C140.924 78.868 141.098 79.7422 141.098 80.625C141.098 81.5078 140.924 82.382 140.586 83.1976C140.248 84.0132 139.753 84.7543 139.129 85.3785ZM194.844 107.5C194.844 124.775 189.721 141.662 180.124 156.026C170.526 170.389 156.885 181.584 140.925 188.195C124.965 194.806 107.403 196.536 90.4601 193.165C73.5171 189.795 57.9539 181.477 45.7387 169.261C33.5234 157.046 25.2048 141.483 21.8346 124.54C18.4644 107.597 20.1941 90.035 26.8049 74.075C33.4158 58.115 44.6108 44.4738 58.9744 34.8763C73.3381 25.2789 90.2251 20.1563 107.5 20.1562C130.658 20.1807 152.86 29.3908 169.234 45.7656C185.609 62.1405 194.819 84.3425 194.844 107.5ZM181.406 107.5C181.406 92.8827 177.072 78.5937 168.951 66.4399C160.83 54.2861 149.287 44.8133 135.783 39.2195C122.278 33.6257 107.418 32.1621 93.0816 35.0138C78.7452 37.8655 65.5764 44.9044 55.2404 55.2404C44.9045 65.5764 37.8656 78.7452 35.0139 93.0816C32.1622 107.418 33.6258 122.278 39.2196 135.783C44.8134 149.287 54.2861 160.83 66.4399 168.951C78.5937 177.072 92.8828 181.406 107.5 181.406C127.094 181.384 145.88 173.59 159.735 159.735C173.59 145.88 181.384 127.094 181.406 107.5Z" fill="#9D5AE3"/>
</svg>
