<svg width="1085" height="1240" viewBox="0 0 1085 1240" fill="none" xmlns="http://www.w3.org/2000/svg">
<path d="M1084.48 594.731C1084.2 594.742 1083.99 594.975 1084 595.251C1084.33 603.461 1084.5 611.711 1084.5 620C1084.5 628.289 1084.33 636.539 1084 644.749C1083.99 645.025 1084.2 645.258 1084.48 645.269C1083.8 661.544 1082.48 677.658 1080.54 693.586C1080.27 693.552 1080.02 693.747 1079.98 694.021C1077.96 710.479 1075.27 726.739 1071.94 742.775C1071.89 743.046 1072.06 743.31 1072.33 743.366C1069.02 759.273 1065.07 774.958 1060.53 790.398C1060.26 790.32 1059.98 790.471 1059.9 790.736C1055.22 806.599 1049.9 822.203 1043.97 837.519C1043.87 837.776 1044 838.066 1044.25 838.165C1038.39 853.272 1031.94 868.099 1024.92 882.619C1024.67 882.498 1024.37 882.602 1024.25 882.851C1017.05 897.709 1009.26 912.245 1000.91 926.431C1000.77 926.669 1000.85 926.975 1001.09 927.115C992.875 941.047 984.117 954.64 974.845 967.868C974.619 967.709 974.307 967.764 974.149 967.99C964.677 981.48 954.669 994.589 944.156 1007.29C943.98 1007.5 944.01 1007.82 944.222 1007.99C933.912 1020.43 923.117 1032.47 911.865 1044.09C911.667 1043.89 911.35 1043.9 911.158 1044.1C899.695 1055.92 887.759 1067.3 875.378 1078.22C875.171 1078.4 875.151 1078.72 875.333 1078.93C863.226 1089.59 850.694 1099.8 837.766 1109.55C837.6 1109.33 837.287 1109.29 837.066 1109.45C823.927 1119.34 810.379 1128.75 796.451 1137.64C796.218 1137.79 796.15 1138.1 796.299 1138.33C782.706 1147 768.752 1155.17 754.464 1162.83C754.334 1162.59 754.031 1162.5 753.787 1162.63C739.307 1170.38 724.485 1177.6 709.346 1184.26C709.093 1184.37 708.979 1184.67 709.09 1184.92C694.348 1191.4 679.308 1197.35 663.995 1202.75C663.903 1202.49 663.618 1202.36 663.357 1202.45C647.891 1207.89 632.146 1212.77 616.149 1217.06C615.882 1217.14 615.724 1217.41 615.796 1217.68C600.268 1221.83 584.504 1225.43 568.527 1228.46C568.475 1228.19 568.214 1228.01 567.943 1228.06C551.855 1231.1 535.552 1233.55 519.057 1235.39C518.783 1235.42 518.585 1235.67 518.616 1235.94C502.673 1237.71 486.551 1238.91 470.274 1239.53C470.263 1239.25 470.032 1239.03 469.756 1239.04C461.542 1239.35 453.29 1239.5 445 1239.5C436.71 1239.5 428.458 1239.35 420.244 1239.04C419.969 1239.03 419.737 1239.25 419.726 1239.53C403.449 1238.91 387.327 1237.71 371.384 1235.94C371.415 1235.67 371.217 1235.42 370.943 1235.39C354.448 1233.55 338.145 1231.1 322.057 1228.06C321.786 1228.01 321.525 1228.19 321.473 1228.46C305.496 1225.43 289.732 1221.83 274.204 1217.68C274.276 1217.41 274.118 1217.14 273.851 1217.06C257.854 1212.77 242.109 1207.89 226.643 1202.45C226.382 1202.36 226.097 1202.49 226.005 1202.75C210.692 1197.35 195.652 1191.4 180.91 1184.92C181.021 1184.67 180.907 1184.37 180.654 1184.26C165.515 1177.6 150.692 1170.38 136.213 1162.63C135.969 1162.5 135.666 1162.59 135.536 1162.83C121.248 1155.17 107.294 1147 93.7013 1138.33C93.8499 1138.1 93.7817 1137.79 93.549 1137.64C79.6208 1128.75 66.0728 1119.34 52.9337 1109.45C52.7131 1109.29 52.3996 1109.33 52.2335 1109.55C39.3058 1099.8 26.7744 1089.59 14.6665 1078.92C14.8492 1078.72 14.8293 1078.4 14.6222 1078.22C2.24139 1067.3 -9.69521 1055.92 -21.1582 1044.1C-21.3504 1043.9 -21.667 1043.89 -21.8652 1044.09C-33.1172 1032.47 -43.9122 1020.43 -54.2225 1007.99C-54.0098 1007.82 -53.9801 1007.5 -54.1562 1007.29C-64.6694 994.589 -74.6768 981.48 -84.1488 967.99C-84.3075 967.764 -84.6193 967.709 -84.8453 967.868C-94.1173 954.64 -102.875 941.047 -111.092 927.115C-110.854 926.975 -110.774 926.669 -110.914 926.431C-119.265 912.245 -127.053 897.709 -134.25 882.851C-134.371 882.602 -134.67 882.498 -134.918 882.619C-141.937 868.099 -148.391 853.272 -154.254 838.165C-153.997 838.066 -153.869 837.776 -153.969 837.519C-159.898 822.203 -165.22 806.6 -169.905 790.736C-169.983 790.471 -170.261 790.32 -170.526 790.398C-175.072 774.958 -179.015 759.273 -182.33 743.366C-182.06 743.31 -181.886 743.046 -181.942 742.775C-185.27 726.739 -187.959 710.479 -189.982 694.021C-190.016 693.747 -190.265 693.553 -190.539 693.586C-192.484 677.658 -193.805 661.544 -194.478 645.269C-194.202 645.258 -193.988 645.025 -193.999 644.749C-194.332 636.539 -194.5 628.289 -194.5 620C-194.5 611.711 -194.332 603.461 -193.999 595.251C-193.988 594.975 -194.202 594.742 -194.478 594.731C-193.805 578.456 -192.484 562.342 -190.539 546.414C-190.265 546.447 -190.016 546.253 -189.982 545.979C-187.959 529.521 -185.27 513.261 -181.942 497.225C-181.886 496.954 -182.06 496.69 -182.33 496.634C-179.015 480.727 -175.072 465.042 -170.526 449.602C-170.261 449.68 -169.983 449.529 -169.905 449.264C-165.22 433.4 -159.898 417.797 -153.969 402.481C-153.869 402.224 -153.997 401.934 -154.254 401.835C-148.391 386.728 -141.937 371.901 -134.918 357.381C-134.67 357.502 -134.371 357.398 -134.25 357.149C-127.053 342.291 -119.265 327.755 -110.914 313.569C-110.774 313.331 -110.854 313.025 -111.092 312.885C-102.875 298.953 -94.1173 285.36 -84.8453 272.132C-84.6193 272.291 -84.3075 272.236 -84.1488 272.01C-74.6767 258.52 -64.6693 245.411 -54.1561 232.712C-53.9801 232.499 -54.0097 232.184 -54.2223 232.008C-43.912 219.574 -33.117 207.534 -21.865 195.913C-21.6668 196.106 -21.3503 196.101 -21.1581 195.903C-9.69516 184.083 2.24142 172.7 14.6223 161.781C14.8293 161.598 14.8492 161.282 14.6667 161.075C26.7745 150.414 39.306 140.196 52.2337 130.448C52.3998 130.669 52.7132 130.713 52.9337 130.547C66.0728 120.656 79.6208 111.25 93.549 102.358C93.7817 102.209 93.8499 101.9 93.7013 101.668C107.294 93.0044 121.248 84.8296 135.536 77.1688C135.666 77.4122 135.969 77.504 136.213 77.3737C150.693 69.6246 165.515 62.4037 180.654 55.7376C180.907 55.6264 181.021 55.3313 180.91 55.0785C195.652 48.6008 210.692 42.6486 226.005 37.2467C226.097 37.5072 226.382 37.6441 226.643 37.5524C242.109 32.1098 257.854 27.2289 273.851 22.9351C274.118 22.8636 274.276 22.5893 274.204 22.3226C289.732 18.1675 305.496 14.5651 321.473 11.5385C321.525 11.8099 321.786 11.9884 322.057 11.9372C338.145 8.90242 354.448 6.45187 370.943 4.60928C371.217 4.57863 371.415 4.33141 371.384 4.05704C387.327 2.28822 403.449 1.08694 419.726 0.474579C419.737 0.750444 419.969 0.965802 420.244 0.955629C428.458 0.652793 436.71 0.5 445 0.5C453.29 0.5 461.542 0.652792 469.756 0.955627C470.031 0.9658 470.263 0.750442 470.274 0.474577C486.551 1.08693 502.673 2.28821 518.616 4.05704C518.585 4.3314 518.783 4.57862 519.057 4.60927C535.552 6.45187 551.855 8.90241 567.943 11.9372C568.214 11.9884 568.475 11.8099 568.527 11.5385C584.504 14.5651 600.268 18.1675 615.796 22.3226C615.724 22.5893 615.882 22.8636 616.149 22.9351C632.146 27.2289 647.891 32.1098 663.357 37.5524C663.618 37.6441 663.903 37.5072 663.995 37.2467C679.308 42.6486 694.348 48.6008 709.09 55.0785C708.979 55.3313 709.093 55.6264 709.346 55.7376C724.485 62.4037 739.307 69.6247 753.787 77.3737C754.031 77.504 754.334 77.4123 754.464 77.1688C768.752 84.8296 782.706 93.0044 796.299 101.668C796.15 101.9 796.218 102.209 796.451 102.358C810.379 111.25 823.927 120.656 837.066 130.547C837.287 130.713 837.6 130.669 837.766 130.448C850.694 140.196 863.226 150.414 875.333 161.075C875.151 161.282 875.171 161.598 875.378 161.781C887.759 172.7 899.695 184.083 911.158 195.903C911.35 196.101 911.667 196.106 911.865 195.913C923.117 207.534 933.912 219.574 944.223 232.008C944.01 232.184 943.98 232.499 944.156 232.712C954.669 245.411 964.677 258.52 974.149 272.01C974.307 272.236 974.619 272.291 974.845 272.132C984.117 285.36 992.875 298.953 1001.09 312.885C1000.85 313.025 1000.77 313.331 1000.91 313.569C1009.26 327.755 1017.05 342.291 1024.25 357.149C1024.37 357.398 1024.67 357.502 1024.92 357.381C1031.94 371.901 1038.39 386.728 1044.25 401.835C1044 401.934 1043.87 402.224 1043.97 402.481C1049.9 417.797 1055.22 433.4 1059.9 449.264C1059.98 449.529 1060.26 449.68 1060.53 449.602C1065.07 465.042 1069.02 480.727 1072.33 496.634C1072.06 496.69 1071.89 496.954 1071.94 497.225C1075.27 513.261 1077.96 529.521 1079.98 545.979C1080.02 546.253 1080.27 546.448 1080.54 546.414C1082.48 562.342 1083.8 578.456 1084.48 594.731Z" stroke="#9D5AE3" stroke-linecap="round" stroke-dasharray="48 48"/>
</svg>
