<svg width="52" height="52" viewBox="0 0 52 52" fill="none" xmlns="http://www.w3.org/2000/svg">
<circle cx="26" cy="26" r="25" fill="#9D5AE3" stroke="#E1C3FF" stroke-width="2"/>
<path d="M26 13C18.8175 13 13 18.9646 13 26.3288C13 32.2268 16.7212 37.2085 21.8888 38.9745C22.5387 39.0912 22.7825 38.6913 22.7825 38.3414C22.7825 38.0249 22.7663 36.9752 22.7663 35.8589C19.5 36.4754 18.655 35.0425 18.395 34.2928C18.2487 33.9096 17.615 32.7267 17.0625 32.4101C16.6075 32.1602 15.9575 31.5437 17.0462 31.5271C18.07 31.5104 18.8012 32.4934 19.045 32.8933C20.215 34.9092 22.0838 34.3428 22.8313 33.9929C22.945 33.1265 23.2863 32.5434 23.66 32.2102C20.7675 31.8769 17.745 30.7273 17.745 25.6291C17.745 24.1795 18.2488 22.98 19.0775 22.0469C18.9475 21.7137 18.4925 20.3475 19.2075 18.5148C19.2075 18.5148 20.2962 18.1649 22.7825 19.881C23.8225 19.5811 24.9275 19.4312 26.0325 19.4312C27.1375 19.4312 28.2425 19.5811 29.2825 19.881C31.7688 18.1483 32.8575 18.5148 32.8575 18.5148C33.5725 20.3475 33.1175 21.7137 32.9875 22.0469C33.8162 22.98 34.32 24.1629 34.32 25.6291C34.32 30.744 31.2812 31.8769 28.3888 32.2102C28.86 32.6267 29.2663 33.4264 29.2663 34.676C29.2663 36.4587 29.25 37.8916 29.25 38.3414C29.25 38.6913 29.4937 39.1078 30.1438 38.9745C32.7249 38.0819 34.9678 36.3815 36.5567 34.1129C38.1455 31.8443 39 29.1217 39 26.3288C39 18.9646 33.1825 13 26 13Z" fill="white"/>
</svg>
