<svg width="52" height="52" viewBox="0 0 52 52" fill="none" xmlns="http://www.w3.org/2000/svg">
<circle cx="26" cy="26" r="25" fill="#9D5AE3" stroke="#E1C3FF" stroke-width="2"/>
<path d="M20.54 13H31.46C35.62 13 39 16.38 39 20.54V31.46C39 33.4597 38.2056 35.3776 36.7916 36.7916C35.3776 38.2056 33.4597 39 31.46 39H20.54C16.38 39 13 35.62 13 31.46V20.54C13 18.5403 13.7944 16.6224 15.2084 15.2084C16.6224 13.7944 18.5403 13 20.54 13ZM20.28 15.6C19.0388 15.6 17.8484 16.0931 16.9707 16.9707C16.0931 17.8484 15.6 19.0388 15.6 20.28V31.72C15.6 34.307 17.693 36.4 20.28 36.4H31.72C32.9612 36.4 34.1516 35.9069 35.0293 35.0293C35.9069 34.1516 36.4 32.9612 36.4 31.72V20.28C36.4 17.693 34.307 15.6 31.72 15.6H20.28ZM32.825 17.55C33.256 17.55 33.6693 17.7212 33.974 18.026C34.2788 18.3307 34.45 18.744 34.45 19.175C34.45 19.606 34.2788 20.0193 33.974 20.324C33.6693 20.6288 33.256 20.8 32.825 20.8C32.394 20.8 31.9807 20.6288 31.6759 20.324C31.3712 20.0193 31.2 19.606 31.2 19.175C31.2 18.744 31.3712 18.3307 31.6759 18.026C31.9807 17.7212 32.394 17.55 32.825 17.55ZM26 19.5C27.7239 19.5 29.3772 20.1848 30.5962 21.4038C31.8152 22.6228 32.5 24.2761 32.5 26C32.5 27.7239 31.8152 29.3772 30.5962 30.5962C29.3772 31.8152 27.7239 32.5 26 32.5C24.2761 32.5 22.6228 31.8152 21.4038 30.5962C20.1848 29.3772 19.5 27.7239 19.5 26C19.5 24.2761 20.1848 22.6228 21.4038 21.4038C22.6228 20.1848 24.2761 19.5 26 19.5ZM26 22.1C24.9657 22.1 23.9737 22.5109 23.2423 23.2423C22.5109 23.9737 22.1 24.9657 22.1 26C22.1 27.0343 22.5109 28.0263 23.2423 28.7577C23.9737 29.4891 24.9657 29.9 26 29.9C27.0343 29.9 28.0263 29.4891 28.7577 28.7577C29.4891 28.0263 29.9 27.0343 29.9 26C29.9 24.9657 29.4891 23.9737 28.7577 23.2423C28.0263 22.5109 27.0343 22.1 26 22.1Z" fill="white"/>
</svg>
