<svg width="627" height="507" viewBox="0 0 627 507" fill="none" xmlns="http://www.w3.org/2000/svg">
<g clip-path="url(#clip0_2317_44)" filter="url(#filter0_b_2317_44)">
<path d="M78.6885 381.443C77.2847 378.726 76.1392 375.884 75.2673 372.953C72.6434 363.494 74.5425 352.704 69.4686 344.301C63.0755 333.757 47.332 331.834 36.6189 337.966C25.9058 344.099 19.7592 356.19 17.1497 368.166C15.5406 375.586 15.0767 383.497 17.6136 390.642C20.513 398.958 27.3265 405.424 34.6763 410.341C42.838 415.808 52.3769 419.815 62.2202 419.482C66.6407 419.327 70.9702 418.185 74.8904 416.141C77.9587 414.867 80.6167 412.775 82.5737 410.095C83.9529 408.484 85.0818 406.675 85.9224 404.729C89.4162 396.529 86.2703 385.739 78.6885 381.443Z" fill="#F5F5FF"/>
<path d="M466.086 173.792H159.117C156.226 173.792 153.883 176.13 153.883 179.014V375.528C153.883 378.411 156.226 380.749 159.117 380.749H466.086C468.976 380.749 471.319 378.411 471.319 375.528V179.014C471.319 176.13 468.976 173.792 466.086 173.792Z" fill="#7B70EE"/>
<path d="M463.462 188.849H161.74V360.688H463.462V188.849Z" fill="#D5CBFB"/>
<path d="M314.493 180.706C314.493 181.08 314.382 181.447 314.173 181.758C313.964 182.07 313.668 182.313 313.321 182.456C312.974 182.6 312.592 182.637 312.223 182.564C311.855 182.491 311.517 182.31 311.251 182.046C310.985 181.781 310.805 181.443 310.731 181.075C310.658 180.708 310.696 180.327 310.839 179.981C310.983 179.634 311.227 179.339 311.539 179.13C311.851 178.922 312.218 178.811 312.594 178.811C313.098 178.811 313.581 179.011 313.937 179.366C314.293 179.721 314.493 180.203 314.493 180.706Z" fill="#D5CBFB"/>
<path d="M514.041 448.279L475.045 386.361C473.964 384.649 472.467 383.237 470.693 382.256C468.919 381.275 466.925 380.757 464.897 380.749H160.334C158.306 380.758 156.313 381.277 154.54 382.258C152.766 383.238 151.269 384.65 150.187 386.361L111.205 448.279C110.127 450.003 109.72 452.061 110.059 454.064H515.186C515.526 452.061 515.118 450.003 514.041 448.279Z" fill="#D5CBFB"/>
<path d="M110.016 454.122C110.077 454.539 110.174 454.951 110.306 455.351L110.915 457.188C111.471 458.851 112.538 460.298 113.963 461.323C115.389 462.348 117.102 462.9 118.859 462.901H506.329C508.086 462.9 509.799 462.348 511.225 461.323C512.65 460.298 513.717 458.851 514.273 457.188L514.882 455.351C515.019 454.951 515.121 454.54 515.186 454.122H110.016Z" fill="#7B70EE"/>
<path d="M175.005 411.296L176.904 407.13H167.51L165.495 411.296H175.005Z" fill="#7B70EE"/>
<path d="M191.56 399.436L192.488 397.266L193.344 395.27H184.254L182.355 399.436H191.56Z" fill="#7B70EE"/>
<path d="M178.847 407.13L176.948 411.296H186.472L188.255 407.13H178.847Z" fill="#7B70EE"/>
<path d="M177.701 405.366L179.6 401.2H170.366L168.365 405.366H177.701Z" fill="#7B70EE"/>
<path d="M369.001 395.27L370.045 399.436H378.134L376.96 395.27H369.001Z" fill="#7B70EE"/>
<path d="M224.033 407.13L222.757 411.296H232.369L233.587 407.13H224.033Z" fill="#7B70EE"/>
<path d="M212.798 407.13L211.305 411.296H220.916L222.192 407.13H212.798Z" fill="#7B70EE"/>
<path d="M201.52 407.13L199.838 411.296H209.42L210.928 407.13H201.52Z" fill="#7B70EE"/>
<path d="M190.183 407.13L188.4 411.296H197.939L199.606 407.13H190.183Z" fill="#7B70EE"/>
<path d="M378.801 395.27L379.961 399.436H387.513L386.296 395.27H378.801Z" fill="#7B70EE"/>
<path d="M256.52 401.2L255.477 405.366H263.073L264.015 401.2H256.52Z" fill="#7B70EE"/>
<path d="M338.935 395.27L339.645 399.436H348.415L347.589 395.27H338.935Z" fill="#7B70EE"/>
<path d="M255.143 399.436L256.201 395.27H248.228L247.068 399.436H255.143Z" fill="#7B70EE"/>
<path d="M245.227 399.436L246.402 395.27H238.907L237.689 399.436H245.227Z" fill="#7B70EE"/>
<path d="M264.407 399.436L265.349 395.27H258.014L256.97 399.436H264.407Z" fill="#7B70EE"/>
<path d="M388.137 395.27L389.354 399.436H398.806L397.516 395.27H388.137Z" fill="#7B70EE"/>
<path d="M217.089 395.27L215.582 399.436H224.555L225.207 397.295L225.831 395.27H217.089Z" fill="#7B70EE"/>
<path d="M213.697 399.436L215.205 395.27H206.275L204.607 399.436H213.697Z" fill="#7B70EE"/>
<path d="M195.257 395.27L193.474 399.436H202.708L203.578 397.266L204.376 395.27H195.257Z" fill="#7B70EE"/>
<path d="M359.853 395.27L360.796 399.436H368.218L367.174 395.27H359.853Z" fill="#7B70EE"/>
<path d="M349.387 395.27L350.213 399.436H358.984L358.041 395.27H349.387Z" fill="#7B70EE"/>
<path d="M235.848 399.436L237.066 395.27H227.672L226.396 399.436H235.848Z" fill="#7B70EE"/>
<path d="M246.895 393.506L247.967 389.629H240.559L239.414 393.506H246.895Z" fill="#7B70EE"/>
<path d="M237.573 393.506L238.718 389.629H229.411L228.208 393.506H237.573Z" fill="#7B70EE"/>
<path d="M328.613 395.27L329.106 399.436H337.862L337.152 395.27H328.613Z" fill="#7B70EE"/>
<path d="M276.149 393.506L276.917 389.629H268.422L267.552 393.506H276.149Z" fill="#7B70EE"/>
<path d="M265.74 393.506L266.61 389.629H259.449L258.463 393.506H265.74Z" fill="#7B70EE"/>
<path d="M256.636 393.506L257.622 389.629H249.808L248.721 393.506H256.636Z" fill="#7B70EE"/>
<path d="M431.859 395.27L433.642 399.436H442.847L440.948 395.27H431.859Z" fill="#7B70EE"/>
<path d="M194.097 393.506L195.764 389.629H186.82L185.051 393.506H194.097Z" fill="#7B70EE"/>
<path d="M205.086 393.506L206.637 389.629H197.678L196.025 393.506H205.086Z" fill="#7B70EE"/>
<path d="M226.367 393.506L227.556 389.629H219.119L217.713 393.506H226.367Z" fill="#7B70EE"/>
<path d="M442.891 395.27L444.79 399.436H453.967L451.966 395.27H442.891Z" fill="#7B70EE"/>
<path d="M215.843 393.506L217.234 389.629H208.551L206.985 393.506H215.843Z" fill="#7B70EE"/>
<path d="M399.372 395.27L400.647 399.436H409.621L408.113 395.27H399.372Z" fill="#7B70EE"/>
<path d="M275.25 407.13L274.424 411.296H283.513L284.224 407.13H275.25Z" fill="#7B70EE"/>
<path d="M235.428 407.13L234.21 411.296H241.922L243.082 407.13H235.428Z" fill="#7B70EE"/>
<path d="M264.479 407.13L263.551 411.296H272.626L273.453 407.13H264.479Z" fill="#7B70EE"/>
<path d="M244.923 407.13L243.749 411.296H252.157L253.201 407.13H244.923Z" fill="#7B70EE"/>
<path d="M255.027 407.13L253.984 411.296H261.739L262.667 407.13H255.027Z" fill="#7B70EE"/>
<path d="M288.051 395.27L287.341 399.436H296.097L296.575 395.27H288.051Z" fill="#7B70EE"/>
<path d="M286.558 393.506L287.225 389.629H278.715L277.947 393.506H286.558Z" fill="#7B70EE"/>
<path d="M276.424 401.2L275.598 405.366H284.528L285.238 401.2H276.424Z" fill="#7B70EE"/>
<path d="M420.827 395.27L422.494 399.436H431.714L429.931 395.27H420.827Z" fill="#7B70EE"/>
<path d="M295.401 405.366L295.879 401.2H287.036L286.326 405.366H295.401Z" fill="#7B70EE"/>
<path d="M409.983 395.27L411.491 399.436H420.595L418.913 395.27H409.983Z" fill="#7B70EE"/>
<path d="M180.412 399.436L182.311 395.27H173.236L171.221 399.436H180.412Z" fill="#7B70EE"/>
<path d="M381.439 411.296L380.279 407.13H371.987L373.046 411.296H381.439Z" fill="#7B70EE"/>
<path d="M246.576 401.2L245.416 405.366H253.65L254.694 401.2H246.576Z" fill="#7B70EE"/>
<path d="M396.98 393.506L395.791 389.629H386.484L387.615 393.506H396.98Z" fill="#7B70EE"/>
<path d="M418.203 393.506L416.652 389.629H407.954L409.36 393.506H418.203Z" fill="#7B70EE"/>
<path d="M407.475 393.506L406.084 389.629H397.646L398.835 393.506H407.475Z" fill="#7B70EE"/>
<path d="M357.635 393.506L356.766 389.629H348.285L349.039 393.506H357.635Z" fill="#7B70EE"/>
<path d="M347.241 393.506L346.473 389.629H337.978L338.645 393.506H347.241Z" fill="#7B70EE"/>
<path d="M429.177 393.506L427.51 389.629H418.551L420.116 393.506H429.177Z" fill="#7B70EE"/>
<path d="M376.467 393.506L375.394 389.629H367.58L368.551 393.506H376.467Z" fill="#7B70EE"/>
<path d="M366.725 393.506L365.754 389.629H358.578L359.448 393.506H366.725Z" fill="#7B70EE"/>
<path d="M371.219 411.296L370.161 407.13H362.521L363.463 411.296H371.219Z" fill="#7B70EE"/>
<path d="M436.802 411.296L435.019 407.13H425.582L427.249 411.296H436.802Z" fill="#7B70EE"/>
<path d="M413.897 411.296L412.39 407.13H403.01L404.286 411.296H413.897Z" fill="#7B70EE"/>
<path d="M459.693 411.296L457.678 407.13H448.298L450.197 411.296H459.693Z" fill="#7B70EE"/>
<path d="M448.255 411.296L446.356 407.13H436.933L438.716 411.296H448.255Z" fill="#7B70EE"/>
<path d="M425.35 411.296L423.668 407.13H414.274L415.768 411.296H425.35Z" fill="#7B70EE"/>
<path d="M361.651 411.296L360.709 407.13H351.75L352.576 411.296H361.651Z" fill="#7B70EE"/>
<path d="M440.137 393.506L438.368 389.629H429.438L431.091 393.506H440.137Z" fill="#7B70EE"/>
<path d="M455.938 399.436H464.419L462.056 395.27H453.923L455.938 399.436Z" fill="#7B70EE"/>
<path d="M390.992 411.296L389.76 407.13H382.106L383.28 411.296H390.992Z" fill="#7B70EE"/>
<path d="M451.111 393.506L449.241 389.629H440.311L442.079 393.506H451.111Z" fill="#7B70EE"/>
<path d="M402.43 411.296L401.155 407.13H391.601L392.834 411.296H402.43Z" fill="#7B70EE"/>
<path d="M461.055 393.506L458.852 389.629H451.198L453.068 393.506H461.055Z" fill="#7B70EE"/>
<path d="M385.774 393.506L384.643 389.629H377.22L378.308 393.506H385.774Z" fill="#7B70EE"/>
<path d="M328.714 411.296L328.222 407.13H319.06L319.234 411.296H328.714Z" fill="#7B70EE"/>
<path d="M192.72 401.2L191.792 403.37L190.937 405.366H200.316L201.998 401.2H192.72Z" fill="#7B70EE"/>
<path d="M338.877 405.366L338.166 401.2H329.309L329.802 405.366H338.877Z" fill="#7B70EE"/>
<path d="M189.009 405.366L190.807 401.2H181.543L180.557 403.384L179.644 405.366H189.009Z" fill="#7B70EE"/>
<path d="M267.161 395.27L266.219 399.436H274.975L275.801 395.27H267.161Z" fill="#7B70EE"/>
<path d="M277.599 395.27L276.772 399.436H285.543L286.253 395.27H277.599Z" fill="#7B70EE"/>
<path d="M225.86 401.2L224.584 405.366H234.108L235.326 401.2H225.86Z" fill="#7B70EE"/>
<path d="M203.897 401.2L202.23 405.366H211.566L213.059 401.2H203.897Z" fill="#7B70EE"/>
<path d="M237.167 401.2L235.949 405.366H243.575L244.735 401.2H237.167Z" fill="#7B70EE"/>
<path d="M318.813 401.2L318.987 405.366H328.018L327.526 401.2H318.813Z" fill="#7B70EE"/>
<path d="M214.944 401.2L213.436 405.366H222.728L224.004 401.2H214.944Z" fill="#7B70EE"/>
<path d="M326.627 393.506L326.177 389.629H318.349L318.509 393.506H326.627Z" fill="#7B70EE"/>
<path d="M350.764 411.296L349.938 407.13H340.964L341.674 411.296H350.764Z" fill="#7B70EE"/>
<path d="M308.607 389.629L308.462 393.506H316.74L316.581 389.629H308.607Z" fill="#7B70EE"/>
<path d="M308.39 395.27L308.216 399.436H316.972L316.813 395.27H308.39Z" fill="#7B70EE"/>
<path d="M327.323 399.436L326.844 395.27H318.581L318.741 399.436H327.323Z" fill="#7B70EE"/>
<path d="M336.847 393.506L336.18 389.629H327.96L328.41 393.506H336.847Z" fill="#7B70EE"/>
<path d="M308.143 401.2L307.969 405.366H317.218L317.044 401.2H308.143Z" fill="#7B70EE"/>
<path d="M307.912 407.13L307.738 411.296H317.45L317.291 407.13H307.912Z" fill="#7B70EE"/>
<path d="M306.694 393.506L306.839 389.629H299.01L298.561 393.506H306.694Z" fill="#7B70EE"/>
<path d="M288.355 393.506H296.778L297.227 389.629H289.008L288.355 393.506Z" fill="#7B70EE"/>
<path d="M349.59 405.366L348.763 401.2H339.949L340.66 405.366H349.59Z" fill="#7B70EE"/>
<path d="M265.827 401.2L264.885 405.366H273.801L274.627 401.2H265.827Z" fill="#7B70EE"/>
<path d="M153.057 413.06L150.998 416.705H160.929L162.683 413.06H153.057Z" fill="#7B70EE"/>
<path d="M389.253 405.366L388.035 401.2H380.453L381.628 405.366H389.253Z" fill="#7B70EE"/>
<path d="M383.773 413.06L384.788 416.705H392.573L391.5 413.06H383.773Z" fill="#7B70EE"/>
<path d="M369.726 405.366L368.667 401.2H361.187L362.129 405.366H369.726Z" fill="#7B70EE"/>
<path d="M305.969 411.296L306.143 407.13H296.966L296.488 411.296H305.969Z" fill="#7B70EE"/>
<path d="M416.405 413.06L417.724 416.705H427.524L426.06 413.06H416.405Z" fill="#7B70EE"/>
<path d="M445.544 405.366L443.645 401.2H434.396L436.179 405.366H445.544Z" fill="#7B70EE"/>
<path d="M427.959 413.06L429.423 416.705H439.122L437.556 413.06H427.959Z" fill="#7B70EE"/>
<path d="M286.021 407.13L285.311 411.296H294.705L295.198 407.13H286.021Z" fill="#7B70EE"/>
<path d="M156.42 407.13L154.057 411.296H163.538L165.539 407.13H156.42Z" fill="#7B70EE"/>
<path d="M330.686 413.06L331.121 416.705H340.805L340.181 413.06H330.686Z" fill="#7B70EE"/>
<path d="M187.646 413.06L186.081 416.705H195.764L197.229 413.06H187.646Z" fill="#7B70EE"/>
<path d="M305.896 413.06H296.285L295.865 416.705H305.751L305.896 413.06Z" fill="#7B70EE"/>
<path d="M434.251 405.366L432.468 401.2H423.204L424.871 405.366H434.251Z" fill="#7B70EE"/>
<path d="M164.64 413.06L162.886 416.705H172.541L174.208 413.06H164.64Z" fill="#7B70EE"/>
<path d="M350.561 401.2L351.402 405.366H360.317L359.375 401.2H350.561Z" fill="#7B70EE"/>
<path d="M393.341 413.06L394.414 416.705H404.097L402.967 413.06H393.341Z" fill="#7B70EE"/>
<path d="M352.924 413.06L353.634 416.705H362.869L362.042 413.06H352.924Z" fill="#7B70EE"/>
<path d="M400.618 405.366L399.343 401.2H389.876L391.094 405.366H400.618Z" fill="#7B70EE"/>
<path d="M411.752 405.366L410.259 401.2H401.184L402.459 405.366H411.752Z" fill="#7B70EE"/>
<path d="M341.979 413.06L342.602 416.705H351.837L351.112 413.06H341.979Z" fill="#7B70EE"/>
<path d="M404.823 413.06L405.939 416.705H415.84L414.535 413.06H404.823Z" fill="#7B70EE"/>
<path d="M163.147 395.27L160.784 399.436H169.264L171.265 395.27H163.147Z" fill="#7B70EE"/>
<path d="M450.995 413.06L452.662 416.705H462.302L460.548 413.06H450.995Z" fill="#7B70EE"/>
<path d="M166.336 389.629L164.147 393.506H172.12L173.99 389.629H166.336Z" fill="#7B70EE"/>
<path d="M422.972 405.366L421.291 401.2H412.129L413.637 405.366H422.972Z" fill="#7B70EE"/>
<path d="M282.6 416.705L283.209 413.06H199.142L197.678 416.705H282.6Z" fill="#7B70EE"/>
<path d="M363.854 413.06L364.681 416.705H372.582L371.668 413.06H363.854Z" fill="#7B70EE"/>
<path d="M297.865 399.436H306.447L306.621 395.27H298.358L297.865 399.436Z" fill="#7B70EE"/>
<path d="M468.768 407.13H459.649L464.274 416.705H474.204L468.768 407.13Z" fill="#7B70EE"/>
<path d="M458.794 405.366H467.768L465.405 401.2H456.793L458.794 405.366Z" fill="#7B70EE"/>
<path d="M456.837 405.366L454.822 401.2H445.587L447.486 405.366H456.837Z" fill="#7B70EE"/>
<path d="M294.082 416.705L294.502 413.06H285.007L284.383 416.705H294.082Z" fill="#7B70EE"/>
<path d="M307.665 413.06L307.52 416.705H329.338L328.917 413.06H307.665Z" fill="#7B70EE"/>
<path d="M439.484 413.06L441.035 416.705H450.719L449.052 413.06H439.484Z" fill="#7B70EE"/>
<path d="M379.787 405.366L378.627 401.2H370.494L371.552 405.366H379.787Z" fill="#7B70EE"/>
<path d="M373.48 413.06L374.408 416.705H382.961L381.932 413.06H373.48Z" fill="#7B70EE"/>
<path d="M159.783 401.2L157.42 405.366H166.394L168.409 401.2H159.783Z" fill="#7B70EE"/>
<path d="M183.109 393.506L184.877 389.629H175.962L174.092 393.506H183.109Z" fill="#7B70EE"/>
<path d="M176.136 413.06L174.483 416.705H184.152L185.718 413.06H176.136Z" fill="#7B70EE"/>
<path d="M306.201 405.366L306.375 401.2H297.662L297.184 405.366H306.201Z" fill="#7B70EE"/>
<path d="M339.181 407.13H330.005L330.483 411.296H339.891L339.181 407.13Z" fill="#7B70EE"/>
<path d="M367.986 447.772H257.202C256.967 447.784 256.733 447.738 256.519 447.64C256.306 447.541 256.12 447.392 255.977 447.205C255.835 447.019 255.74 446.801 255.7 446.569C255.661 446.338 255.679 446.101 255.752 445.878L262.783 423.04C262.876 422.732 263.069 422.465 263.332 422.279C263.594 422.093 263.911 421.999 264.233 422.013H360.926C361.248 421.999 361.565 422.093 361.827 422.279C362.09 422.465 362.283 422.732 362.376 423.04L369.392 445.863C369.465 446.086 369.483 446.324 369.444 446.555C369.405 446.786 369.31 447.004 369.167 447.191C369.024 447.377 368.838 447.526 368.625 447.625C368.412 447.724 368.177 447.77 367.943 447.758L367.986 447.772ZM264.247 423.315C264.213 423.314 264.18 423.325 264.154 423.346C264.127 423.368 264.109 423.397 264.102 423.43L257.057 446.268C257.045 446.288 257.039 446.31 257.039 446.333C257.039 446.356 257.045 446.379 257.057 446.398C257.069 446.419 257.085 446.436 257.106 446.449C257.126 446.462 257.149 446.469 257.173 446.471H367.986C368.012 446.47 368.038 446.463 368.06 446.451C368.083 446.438 368.102 446.42 368.117 446.398C368.128 446.379 368.134 446.356 368.134 446.333C368.134 446.31 368.128 446.288 368.117 446.268L361.086 423.43C361.074 423.397 361.052 423.369 361.024 423.348C360.995 423.327 360.961 423.316 360.926 423.315H264.247Z" fill="#7B70EE"/>
<path d="M366.391 215.187L246.054 234.119L361.752 291.871L481.597 274.081L366.391 215.187Z" fill="#1C1C84"/>
<path d="M367 280V282.734L482.786 343.104L602.544 322.595V319.962L482.699 337.752L367 280Z" fill="#2525AD"/>
<path d="M290.82 299.089L288.979 311.354C288.979 311.354 338.384 350.94 408.055 331.472L409.128 321.941C347.546 332.166 308.839 312.25 290.82 299.089Z" fill="#2525AD"/>
<path d="M437.527 363.422C431.08 358.119 426.466 350.93 424.335 342.869C424.176 342.291 423.378 342.493 423.291 343C422.725 342.904 422.154 342.836 421.581 342.797C417.232 351.359 420.58 361.006 423.538 369.468C423.77 370.133 424.509 369.786 424.262 369.12C421.958 362.496 419.479 355.076 420.885 348.105C420.232 357.035 422.923 365.889 428.438 372.953C428.829 373.459 429.438 372.852 429.046 372.346C424.145 365.891 421.626 357.948 421.914 349.855C422.033 353.012 422.589 356.136 423.567 359.141C425.288 363.704 427.551 368.045 430.308 372.071C430.685 372.678 431.293 372.071 430.902 371.463C428.358 367.587 426.267 363.433 424.668 359.083C423.996 357.207 423.51 355.269 423.219 353.297C424.71 359.758 427.828 365.731 432.279 370.654C432.758 371.16 433.381 370.654 432.903 370.176C428.104 364.732 424.965 358.033 423.857 350.868C425.707 357.558 428.936 363.789 433.337 369.164C433.772 369.713 434.236 369.164 433.787 368.571C429.622 363.285 426.606 357.192 424.929 350.68C427.307 357.362 430.395 363.798 435.831 368.556C436.367 369.019 436.947 368.556 436.411 368.007C432.847 364.602 430.05 360.481 428.206 355.915C430.381 359.796 433.014 363.404 436.048 366.662C436.527 367.182 436.933 366.358 436.454 365.852C433.884 362.963 431.634 359.806 429.742 356.436C431.788 359.185 434.18 361.66 436.86 363.798C437.484 364.188 438.078 363.798 437.527 363.422Z" fill="#F0C64B"/>
<path d="M426.263 270.943C423.643 268.083 420.44 265.814 416.869 264.29C409.969 260.949 402.286 259.488 394.791 258.07C384.194 256.074 373.364 254.223 364.565 247.57C364.502 247.516 364.427 247.475 364.347 247.452C364.267 247.429 364.183 247.423 364.1 247.436C364.018 247.448 363.939 247.478 363.869 247.524C363.799 247.569 363.74 247.63 363.695 247.7C363.575 247.824 363.507 247.99 363.507 248.163C363.507 248.336 363.575 248.502 363.695 248.626C370.161 254.787 378.786 257.825 387.281 259.98C395.776 262.135 404.677 263.624 412.839 267.023L413.608 267.341L413.926 267.486L415.173 268.108C416.721 268.84 418.209 269.691 419.624 270.654C421.349 271.795 422.828 273.271 423.973 274.993C425.097 276.908 425.636 279.11 425.524 281.328C425.405 283.659 425.119 285.979 424.669 288.27C424.277 290.642 423.915 293.028 423.552 295.415C422.798 300.347 422.103 305.279 421.552 310.225C420.137 321.15 420.298 332.221 422.03 343.101C422.079 343.27 422.187 343.417 422.335 343.513C422.483 343.61 422.661 343.651 422.836 343.628C423.011 343.605 423.173 343.521 423.291 343.39C423.409 343.258 423.476 343.089 423.48 342.913C422.825 332.679 423.272 322.404 424.814 312.265C425.538 307.188 426.408 302.14 427.292 297.093C428.133 292.349 429.235 287.576 429.626 282.774C429.881 280.678 429.714 278.552 429.137 276.521C428.559 274.49 427.583 272.594 426.263 270.943Z" fill="#F0C64B"/>
<path d="M421.363 344.026L421.74 343.853H421.842H422.016C422.291 343.768 422.572 343.705 422.857 343.665H423.06H423.958H424.161H424.263C424.446 343.73 424.645 343.73 424.828 343.665C424.911 343.621 424.984 343.562 425.044 343.49C425.104 343.418 425.149 343.335 425.176 343.245C425.235 343.059 425.218 342.857 425.129 342.684C425.039 342.51 424.884 342.379 424.698 342.32C423.336 342.059 421.927 342.247 420.682 342.855C420.597 342.899 420.521 342.96 420.46 343.033C420.398 343.107 420.352 343.192 420.324 343.283C420.295 343.375 420.286 343.471 420.295 343.566C420.304 343.661 420.332 343.754 420.378 343.838C420.472 344.004 420.627 344.128 420.81 344.185C420.993 344.241 421.191 344.226 421.363 344.142V344.026Z" fill="#D8A32B"/>
<path d="M421.218 342.594L421.595 342.435C421.668 342.435 421.682 342.435 421.595 342.435H421.711H421.885C422.16 342.351 422.441 342.288 422.726 342.247H422.929C422.74 342.247 422.929 342.247 423.001 342.247H423.364H423.784H424.089C424.27 342.319 424.472 342.319 424.654 342.247C424.822 342.153 424.947 341.998 425.002 341.813C425.031 341.722 425.042 341.626 425.033 341.531C425.025 341.436 424.998 341.343 424.953 341.258C424.909 341.173 424.848 341.098 424.774 341.037C424.7 340.976 424.615 340.93 424.523 340.902C423.164 340.63 421.752 340.813 420.508 341.423C420.422 341.468 420.346 341.53 420.285 341.605C420.223 341.68 420.177 341.766 420.148 341.859C420.12 341.952 420.111 342.049 420.12 342.145C420.129 342.242 420.158 342.335 420.203 342.421C420.298 342.587 420.454 342.71 420.638 342.764C420.822 342.818 421.019 342.799 421.189 342.71L421.218 342.594Z" fill="#D8A32B"/>
<path d="M412.738 293.159L413.347 288.415L361.839 297.223L297.024 263.436L295.633 271.42L360.549 304.021L412.738 293.159Z" fill="#0C0C5B"/>
<path d="M360.549 304.021L295.633 271.42L290.82 299.089C308.767 312.25 347.546 332.166 409.128 321.883L412.738 293.159L360.549 304.021Z" fill="#1C1C84"/>
<path d="M281.861 341.568C284.76 349.291 278.555 358.707 268.06 362.583C257.564 366.459 251.591 361.571 247.387 354.484C241.255 344.099 247.17 338.574 257.666 334.625C268.161 330.677 278.976 333.844 281.861 341.568Z" fill="#FFF6DC"/>
<path d="M177.122 256.523C177.122 256.523 203.216 283.266 224.468 331.27C224.468 331.27 234.616 357.304 241.226 363.841C241.226 363.841 235.863 357.81 244.053 348.163C247.047 344.636 250.745 341.77 254.911 339.748C259.076 337.726 263.619 336.592 268.248 336.419C273.438 336.231 278.874 337.315 281.962 341.669C281.962 341.669 247.257 300.882 224.57 265.678C215.509 251.605 211.218 239.991 209.333 231.111C207.873 229.574 206.137 228.323 204.216 227.422C191.691 221.247 176.948 229.563 174.759 243.332C174.544 244.692 174.423 246.064 174.396 247.44C174.396 247.44 174.15 253.5 177.122 256.523Z" fill="white"/>
<path d="M241.226 363.841C241.226 363.841 252.621 377.553 278.425 361.093C278.425 361.093 294.371 350.477 286.427 331.964C275.617 323.687 265.688 314.323 256.796 304.021C239.867 284.266 225.548 262.426 214.19 239.037L210.769 236.983C210.769 236.983 213.233 250.318 229.179 272.78C245.126 295.241 274.554 332.861 274.554 332.861L279.063 338.27C280.354 339.786 281.223 341.615 281.582 343.573C281.941 345.53 281.777 347.547 281.107 349.421C279.063 354.787 273.105 361.166 256.462 362.135L246.054 346.066C246.054 346.066 235.964 354.368 241.226 363.841Z" fill="#F4E7BD"/>
<path d="M266.422 314.463C266.422 314.463 236.529 283.352 215.567 234.119C213.668 231.085 211.601 228.159 209.377 225.354C209.377 225.354 227.657 281.545 266.422 314.463Z" fill="white"/>
<path d="M211.435 305.438C214.771 299.752 219.577 295.066 225.352 291.87C231.126 288.674 237.655 287.086 244.256 287.272C248.866 287.503 248.852 281.79 244.256 281.487C228.904 280.72 213.697 288.371 206.246 301.735C206.246 301.735 209.145 309.358 211.435 305.337V305.438Z" fill="#F0C64B"/>
<path d="M165.104 267.53H106.421C98.6066 267.53 92.272 273.85 92.272 281.646V312.135C92.272 319.931 98.6066 326.251 106.421 326.251H165.104C172.918 326.251 179.253 319.931 179.253 312.135V281.646C179.253 273.85 172.918 267.53 165.104 267.53Z" fill="#2525AD"/>
<path d="M126.426 296.89V286.129L135.762 291.51L145.098 296.89L135.762 302.271L126.426 307.651V296.89Z" fill="#D5CBFB"/>
<path d="M118.772 196.745C118.771 190.93 117.205 185.221 114.237 180.216C111.269 175.211 107.009 171.093 101.9 168.292C96.7916 165.491 91.023 164.111 85.197 164.295C79.371 164.479 73.7014 166.221 68.7807 169.338C63.86 172.456 59.8688 176.834 57.2241 182.017C54.5795 187.199 53.3784 192.995 53.7465 198.799C54.1145 204.603 56.0382 210.202 59.3164 215.011C62.5946 219.819 67.1071 223.661 72.3824 226.135V236.476H100.086V226.135C105.675 223.511 110.4 219.353 113.709 214.149C117.018 208.945 118.774 202.909 118.772 196.745Z" fill="white"/>
<path d="M100.956 241.828H71.5126C70.8013 241.828 70.1191 241.546 69.6162 241.044C69.1132 240.543 68.8307 239.862 68.8307 239.152C68.8345 238.444 69.1183 237.765 69.6204 237.264C70.1225 236.763 70.8025 236.48 71.5126 236.477H100.956C101.666 236.48 102.346 236.763 102.848 237.264C103.35 237.765 103.634 238.444 103.637 239.152C103.637 239.862 103.355 240.543 102.852 241.044C102.349 241.546 101.667 241.828 100.956 241.828Z" fill="#F0C64B"/>
<path d="M75.4702 244.504H96.9834V246.283C96.9834 247.692 96.7052 249.088 96.1646 250.39C95.6241 251.692 94.8317 252.875 93.8329 253.871C92.834 254.868 91.6482 255.658 90.3432 256.198C89.0381 256.737 87.6394 257.014 86.2268 257.014C83.374 257.014 80.638 255.884 78.6208 253.871C76.6035 251.859 75.4702 249.129 75.4702 246.283V244.504Z" fill="#F0C64B"/>
<path d="M100.956 247.18H71.5126C70.8013 247.18 70.1191 246.898 69.6162 246.396C69.1132 245.894 68.8307 245.214 68.8307 244.504C68.8307 243.794 69.1132 243.114 69.6162 242.612C70.1191 242.11 70.8013 241.828 71.5126 241.828H100.956C101.667 241.828 102.349 242.11 102.852 242.612C103.355 243.114 103.637 243.794 103.637 244.504C103.637 245.214 103.355 245.894 102.852 246.396C102.349 246.898 101.667 247.18 100.956 247.18Z" fill="#D8A32B"/>
<path d="M89.1987 236.477H87.662V191.38C87.662 190.996 87.5093 190.628 87.2374 190.357C86.9656 190.086 86.5968 189.933 86.2123 189.933C85.8279 189.933 85.4591 190.086 85.1873 190.357C84.9154 190.628 84.7627 190.996 84.7627 191.38V236.477H83.313V191.38C83.313 190.595 83.6253 189.843 84.1813 189.288C84.7373 188.733 85.4913 188.422 86.2776 188.422C87.0638 188.422 87.8179 188.733 88.3739 189.288C88.9298 189.843 89.2422 190.595 89.2422 191.38L89.1987 236.477Z" fill="#F0C64B"/>
<path d="M35.0967 185.681L34.1979 190.324L47.7959 192.927C47.9805 191.355 48.2564 189.796 48.6222 188.256L35.0967 185.681Z" fill="#7B70EE"/>
<path d="M45.8677 164.275L42.9684 168.05L53.812 176.251C54.6978 174.924 55.6662 173.654 56.7113 172.447L45.8677 164.275Z" fill="#7B70EE"/>
<path d="M64.8731 149.826L60.64 151.953L66.7432 164.015C68.1104 163.218 69.5239 162.504 70.9762 161.874L64.8731 149.826Z" fill="#7B70EE"/>
<path d="M138.27 190.324L137.371 185.681L123.831 188.256C124.209 189.794 124.49 191.354 124.672 192.927L138.27 190.324Z" fill="#7B70EE"/>
<path d="M129.471 168.05L126.571 164.275L115.786 172.505C116.826 173.715 117.795 174.985 118.685 176.309L129.471 168.05Z" fill="#7B70EE"/>
<path d="M111.828 151.953L107.581 149.826L101.492 161.874C102.944 162.504 104.358 163.218 105.725 164.015L111.828 151.953Z" fill="#7B70EE"/>
<path d="M88.6623 158.837L88.5463 145.111H83.7914L83.9073 158.794C84.6757 158.794 85.4585 158.707 86.2268 158.707C86.9952 158.707 87.8505 158.794 88.6623 158.837Z" fill="#7B70EE"/>
<path d="M566.838 444.677H429.336V471.724H566.838V444.677Z" fill="#F0C64B"/>
<path d="M442.615 444.677H437.078V471.724H442.615V444.677Z" fill="#D8A32B"/>
<path d="M450.937 444.677H445.399V471.724H450.937V444.677Z" fill="#D8A32B"/>
<path d="M550.79 444.677H545.253V471.724H550.79V444.677Z" fill="#D8A32B"/>
<path d="M559.097 444.677H553.559V471.724H559.097V444.677Z" fill="#D8A32B"/>
<path d="M580.074 429.606V425.441C580.07 422.596 578.936 419.868 576.919 417.857C574.903 415.845 572.169 414.713 569.317 414.709H446.776V440.324H569.317C572.167 440.32 574.898 439.19 576.914 437.181C578.93 435.173 580.066 432.449 580.074 429.606Z" fill="white"/>
<path d="M569.317 410.211H445.979V414.709H569.317C572.169 414.713 574.903 415.845 576.919 417.857C578.936 419.868 580.07 422.596 580.074 425.441V429.606C580.066 432.449 578.93 435.173 576.914 437.181C574.898 439.19 572.166 440.32 569.317 440.324H445.979V444.836H569.317C573.366 444.832 577.248 443.227 580.112 440.372C582.977 437.517 584.589 433.646 584.597 429.606V425.441C584.589 421.402 582.977 417.53 580.112 414.675C577.248 411.82 573.366 410.215 569.317 410.211Z" fill="#2525AD"/>
<path d="M571.724 420.451H446.776V422.505H571.724V420.451Z" fill="#F5F5FF"/>
<path d="M571.724 426.612H446.776V428.666H571.724V426.612Z" fill="#F5F5FF"/>
<path d="M571.724 432.788H446.776V434.842H571.724V432.788Z" fill="#F5F5FF"/>
<path d="M436.266 396.688V392.927C436.27 390.367 437.292 387.913 439.107 386.105C440.923 384.296 443.384 383.28 445.95 383.28H556.299V406.335H445.95C443.384 406.335 440.923 405.319 439.107 403.51C437.292 401.701 436.27 399.247 436.266 396.688Z" fill="white"/>
<path d="M445.95 379.187H557.024V383.251H445.95C443.384 383.251 440.923 384.267 439.107 386.076C437.292 387.885 436.27 390.338 436.266 392.898V396.688C436.27 399.248 437.292 401.701 439.107 403.51C440.923 405.319 443.384 406.335 445.95 406.335H557.024V410.399H445.95C442.306 410.395 438.813 408.949 436.236 406.379C433.66 403.808 432.211 400.323 432.207 396.688V392.927C432.205 391.125 432.559 389.34 433.248 387.674C433.938 386.008 434.95 384.493 436.226 383.217C437.502 381.942 439.018 380.929 440.686 380.237C442.354 379.546 444.143 379.189 445.95 379.187Z" fill="#F0C64B"/>
<path d="M443.79 390.251H556.299V388.4H443.79V390.251Z" fill="#F5F5FF"/>
<path d="M443.79 395.805H556.299V393.954H443.79V395.805Z" fill="#F5F5FF"/>
<path d="M443.79 401.374H556.299V399.522H443.79V401.374Z" fill="#F5F5FF"/>
<path d="M214.61 91.5966C217.066 91.5618 219.435 92.4999 221.199 94.2053C222.963 95.9106 223.977 98.2441 224.019 100.694V102.14C228.059 115.033 228.059 128.849 224.019 141.741V143.115C224 144.329 223.741 145.527 223.258 146.641C222.775 147.755 222.077 148.764 221.203 149.608C220.33 150.453 219.298 151.118 218.166 151.565C217.035 152.012 215.827 152.232 214.61 152.213C207.739 152.213 202.157 138.661 202.157 121.941C202.157 105.221 207.681 91.5966 214.61 91.5966Z" fill="#F0C64B"/>
<path d="M206.333 122.273C206.333 132.499 207.13 140.787 208.101 140.787C209.072 140.787 209.884 132.499 209.884 122.273C209.884 112.048 209.087 103.746 208.101 103.746C207.115 103.746 206.333 112.033 206.333 122.273Z" fill="#D8A32B"/>
<path d="M237.124 108.157V136.346C236.486 143.318 230.049 149.797 221.424 152.126V92.3777C230.049 94.7063 236.486 101.186 237.124 108.157Z" fill="#7B70EE"/>
<path d="M221.424 155.395C222.088 155.402 222.728 155.149 223.206 154.688C223.684 154.228 223.96 153.598 223.975 152.936V91.5966C223.96 90.9342 223.684 90.3045 223.206 89.8442C222.728 89.3839 222.088 89.1301 221.424 89.1379C220.76 89.1301 220.119 89.3839 219.642 89.8442C219.164 90.3045 218.888 90.9342 218.872 91.5966V152.936C218.888 153.598 219.164 154.228 219.642 154.688C220.119 155.149 220.76 155.402 221.424 155.395Z" fill="#2525AD"/>
<path d="M165.698 91.5966C163.242 91.5618 160.873 92.4999 159.109 94.2053C157.346 95.9106 156.332 98.2441 156.29 100.694V102.14C152.23 115.03 152.23 128.852 156.29 141.741V143.115C156.309 144.329 156.567 145.527 157.05 146.641C157.533 147.755 158.231 148.764 159.105 149.608C159.979 150.453 161.011 151.118 162.142 151.565C163.273 152.012 164.482 152.232 165.698 152.213C172.57 152.213 178.151 138.661 178.151 121.941C178.151 105.221 172.57 91.5966 165.698 91.5966Z" fill="#F0C64B"/>
<path d="M173.918 122.273C173.918 132.499 173.12 140.787 172.135 140.787C171.149 140.787 170.366 132.499 170.366 122.273C170.366 112.048 171.163 103.746 172.135 103.746C173.106 103.746 173.918 112.033 173.918 122.273Z" fill="#D8A32B"/>
<path d="M143.127 108.157V136.346C143.765 143.318 150.201 149.797 158.827 152.126V92.3777C150.201 94.7063 143.765 101.186 143.127 108.157Z" fill="#7B70EE"/>
<path d="M158.827 155.395C158.163 155.402 157.522 155.149 157.045 154.688C156.567 154.228 156.29 153.598 156.275 152.936V91.5966C156.29 90.9342 156.567 90.3045 157.045 89.8442C157.522 89.3839 158.163 89.1301 158.827 89.1379C159.491 89.1301 160.131 89.3839 160.609 89.8442C161.086 90.3045 161.363 90.9342 161.378 91.5966V152.936C161.363 153.598 161.086 154.228 160.609 154.688C160.131 155.149 159.491 155.402 158.827 155.395Z" fill="#2525AD"/>
<path d="M221.656 54.2812C216.3 50.1865 210.109 47.3132 203.52 45.8635C196.987 44.2781 190.223 43.8618 183.544 44.6341C181.529 44.8655 179.528 45.1837 177.557 45.6031C176.15 45.8054 174.773 46.1744 173.454 46.7024C172.135 47.3243 170.845 48.0041 169.554 48.6549L159.001 53.9051C158.697 54.0862 158.446 54.3425 158.272 54.6493C158.098 54.956 158.006 55.3026 158.006 55.6552C158.006 56.0078 158.098 56.3544 158.272 56.6611C158.446 56.9679 158.697 57.2242 159.001 57.4053C162.241 59.2084 166.023 59.7886 169.656 59.0396C172.186 58.5155 174.665 57.7702 177.064 56.8123C181.523 55.3049 186.199 54.533 190.908 54.5271C195.091 54.4289 199.25 55.187 203.129 56.7544C208.812 59.1987 215.596 60.8331 221.25 57.4053C221.506 57.2455 221.723 57.0311 221.886 56.7775C222.049 56.524 222.153 56.2376 222.192 55.9389C222.231 55.6402 222.203 55.3366 222.11 55.05C222.018 54.7634 221.862 54.5008 221.656 54.2812Z" fill="#7B70EE"/>
<path d="M191.01 42.3345H190.125H189.241C175.1 42.7889 161.69 48.7129 151.847 58.8538C142.005 68.9947 136.502 82.5574 136.502 96.6735V129.679C136.498 130.552 136.667 131.417 136.998 132.225C137.33 133.033 137.818 133.767 138.435 134.387C139.052 135.006 139.785 135.498 140.593 135.834C141.4 136.171 142.266 136.345 143.141 136.347V103.804L142.996 102.965C141.818 96.436 141.981 89.736 143.476 83.2717C144.971 76.8075 147.767 70.7137 151.694 65.3602C155.84 59.8049 161.252 55.3133 167.481 52.2564L167.728 52.1407C174.709 48.7643 182.367 47.0102 190.125 47.0102C197.884 47.0102 205.541 48.7643 212.523 52.1407L212.769 52.2564C219.029 55.3437 224.461 59.8755 228.614 65.4759C232.549 70.8255 235.35 76.9191 236.845 83.3846C238.341 89.8501 238.499 96.5519 237.312 103.081L237.167 103.92V136.347C238.932 136.347 240.624 135.647 241.872 134.402C243.12 133.157 243.821 131.469 243.821 129.708V96.7313C243.836 82.5931 238.329 69.0054 228.47 58.8501C218.61 48.6948 205.174 42.7708 191.01 42.3345Z" fill="#2525AD"/>
<path d="M593.179 160.674H506.677V285.479H593.179V160.674Z" fill="#D5CBFB"/>
<path d="M583.843 178.985H516.013V181.747H583.843V178.985Z" fill="#7B70EE"/>
<path d="M583.843 191.655H516.013V194.417H583.843V191.655Z" fill="#7B70EE"/>
<path d="M583.843 204.339H516.013V207.101H583.843V204.339Z" fill="#7B70EE"/>
<path d="M583.843 217.023H516.013V219.786H583.843V217.023Z" fill="#7B70EE"/>
<path d="M583.843 229.708H516.013V232.47H583.843V229.708Z" fill="#7B70EE"/>
<path d="M583.843 242.378H516.013V245.14H583.843V242.378Z" fill="#7B70EE"/>
<path d="M583.843 273.185H516.013V273.951H583.843V273.185Z" fill="white"/>
<path d="M525.291 261.195C528.75 261.797 532.273 261.952 535.772 261.657C539.085 261.45 542.348 260.753 545.456 259.589C547.616 258.707 549.95 256.277 548.442 253.804C547.108 251.649 543.788 251.432 541.57 251.952C538.994 252.621 536.726 254.153 535.148 256.292C533.583 258.389 532.481 261.426 534.337 263.697C536.192 265.968 539.193 266.213 541.715 265.866C543.145 265.649 544.518 265.158 545.76 264.42C546.339 264.082 546.887 263.695 547.398 263.263C548.013 262.585 548.799 262.086 549.674 261.817C550.776 261.672 551.022 262.496 551.718 263.089C551.958 263.282 552.234 263.425 552.531 263.51C552.827 263.594 553.137 263.618 553.443 263.581C554.195 263.444 554.926 263.211 555.618 262.887C556.494 262.565 557.424 262.413 558.358 262.438C562.475 262.54 566.635 263.089 570.752 263.422C571.492 263.422 571.477 262.8 570.752 262.728C567.694 262.482 564.62 261.788 561.561 261.527C560.158 261.351 558.743 261.284 557.328 261.325C556.091 261.588 554.875 261.941 553.69 262.381C552.24 262.684 552.066 261.267 550.935 260.819C550.432 260.665 549.899 260.632 549.38 260.722C548.861 260.813 548.371 261.024 547.949 261.339C546.905 262.048 546.035 262.959 544.919 263.567C543.648 264.249 542.243 264.649 540.802 264.738C538.483 264.868 535.003 264.174 534.54 261.426C534.09 258.938 536.163 256.349 537.975 254.874C538.894 254.068 539.974 253.467 541.144 253.111C542.314 252.754 543.546 252.65 544.76 252.806C545.919 253.008 547.427 253.558 547.659 254.845C547.891 256.132 546.659 257.564 545.441 258.157C543.98 258.813 542.448 259.299 540.875 259.604C539.178 259.977 537.459 260.242 535.728 260.399C532.354 260.785 528.945 260.746 525.581 260.283C524.856 260.168 524.551 260.963 525.276 261.079L525.291 261.195Z" fill="#7B70EE"/>
<path d="M616.384 218.473L625.138 223.211C625.993 223.674 626.629 224.457 626.906 225.387C627.182 226.318 627.077 227.32 626.613 228.173L622.141 236.398L606.913 228.156L611.386 219.931C611.617 219.506 611.93 219.132 612.306 218.828C612.683 218.525 613.116 218.299 613.581 218.163C614.045 218.028 614.532 217.986 615.014 218.039C615.495 218.092 615.961 218.239 616.384 218.473Z" fill="#D5CBFB"/>
<path d="M620.971 238.396L605.77 230.166L561.839 310.924L577.039 319.155L620.971 238.396Z" fill="#2525AD"/>
<path d="M616.197 235.697L610.768 232.759L566.851 313.525L572.279 316.463L616.197 235.697Z" fill="#1C1C84"/>
<path d="M624.86 235.67L606.039 225.483L604.062 229.119L622.883 239.306L624.86 235.67Z" fill="#F0C64B"/>
<path d="M577.117 319.135L561.91 310.905L560.358 324.66L566.389 327.929L577.117 319.135Z" fill="#D5CBFB"/>
<path d="M566.389 327.929L560.358 324.66L559.358 333.7L566.389 327.929Z" fill="#2525AD"/>
<path d="M78.2971 96.196L93.8522 111.73" stroke="#7B70EE" stroke-width="2.15" stroke-miterlimit="10"/>
<path d="M94.1566 96.196L78.6016 111.73" stroke="#7B70EE" stroke-width="2.15" stroke-miterlimit="10"/>
<path d="M601.732 329.042L617.287 344.561" stroke="#7B70EE" stroke-width="2.15" stroke-miterlimit="10"/>
<path d="M617.606 329.042L602.037 344.561" stroke="#7B70EE" stroke-width="2.15" stroke-miterlimit="10"/>
<path d="M34.3864 274.631L48.1583 288.386" stroke="#2525AD" stroke-width="1.9" stroke-miterlimit="10"/>
<path d="M48.4482 274.631L34.6617 288.386" stroke="#2525AD" stroke-width="1.9" stroke-miterlimit="10"/>
<path d="M27.08 160.674C27.08 162.897 26.419 165.07 25.1807 166.919C23.9423 168.767 22.1823 170.208 20.1232 171.058C18.0641 171.908 15.7986 172.13 13.6132 171.695C11.4278 171.26 9.42074 170.188 7.84603 168.615C6.27131 167.042 5.19966 165.038 4.76668 162.857C4.33369 160.676 4.55882 158.416 5.41359 156.363C6.26836 154.31 7.71435 152.556 9.56861 151.323C11.4229 150.09 13.6021 149.433 15.8305 149.436C17.309 149.436 18.773 149.727 20.1388 150.292C21.5046 150.856 22.7454 151.684 23.7902 152.728C24.835 153.772 25.6634 155.011 26.2278 156.374C26.7923 157.738 27.0819 159.199 27.08 160.674Z" stroke="#7B70EE" stroke-width="2.15" stroke-miterlimit="10"/>
<path d="M467.767 152.025C473.988 152.025 479.031 146.993 479.031 140.787C479.031 134.58 473.988 129.549 467.767 129.549C461.547 129.549 456.503 134.58 456.503 140.787C456.503 146.993 461.547 152.025 467.767 152.025Z" stroke="#7B70EE" stroke-width="2.15" stroke-miterlimit="10"/>
<path d="M519.144 125.123C519.144 125.695 518.974 126.254 518.655 126.73C518.337 127.206 517.884 127.576 517.354 127.795C516.824 128.014 516.241 128.072 515.679 127.96C515.117 127.848 514.6 127.573 514.194 127.168C513.789 126.764 513.513 126.248 513.401 125.687C513.289 125.126 513.346 124.544 513.566 124.016C513.785 123.487 514.157 123.036 514.634 122.718C515.111 122.4 515.671 122.23 516.245 122.23C517.014 122.23 517.751 122.535 518.295 123.077C518.838 123.62 519.144 124.356 519.144 125.123Z" stroke="#2525AD" stroke-width="1.9" stroke-miterlimit="10"/>
<path d="M243.198 29.9247C243.198 30.4968 243.028 31.0561 242.709 31.5318C242.391 32.0075 241.938 32.3782 241.408 32.5972C240.878 32.8161 240.295 32.8734 239.733 32.7618C239.17 32.6501 238.654 32.3746 238.248 31.9701C237.843 31.5655 237.567 31.0501 237.455 30.489C237.343 29.9279 237.4 29.3463 237.62 28.8177C237.839 28.2891 238.211 27.8373 238.688 27.5195C239.165 27.2016 239.725 27.032 240.299 27.032C241.067 27.032 241.805 27.3367 242.349 27.8792C242.892 28.4217 243.198 29.1575 243.198 29.9247Z" stroke="#2525AD" stroke-width="1.9" stroke-miterlimit="10"/>
<path d="M60.6111 392.233V398.987C56.2056 399.255 52.0669 401.184 49.0333 404.382C45.9997 407.58 44.2981 411.81 44.2732 416.213V421.999C44.2947 426.52 46.0837 430.854 49.2596 434.079C52.4354 437.305 56.7474 439.166 61.2779 439.268C62.9762 448.39 67.8188 456.633 74.9671 462.568C82.1155 468.504 91.1193 471.758 100.419 471.767C110.982 471.763 121.111 467.574 128.579 460.121C136.047 452.668 140.242 442.56 140.242 432.022V392.233H60.6111ZM49.8689 421.955V416.17C49.8764 413.241 50.9834 410.42 52.9719 408.265C54.9603 406.11 57.6857 404.776 60.6111 404.527V431.978C60.6111 432.528 60.6111 433.063 60.6111 433.598C57.6845 433.352 54.9571 432.019 52.9681 429.863C50.979 427.707 49.8731 424.885 49.8689 421.955Z" fill="#2525AD"/>
<path d="M120.381 346.991C117.795 345.77 114.896 345.364 112.073 345.829C109.249 346.295 106.635 347.608 104.58 349.595C103.84 343.81 98.3171 339.47 92.5329 338.545C86.7487 337.619 80.8485 339.702 75.7746 342.609C70.7007 345.516 66.1342 349.421 64.0467 354.758C61.9592 360.095 63.1189 366.98 67.8594 370.22C69.8285 371.501 72.2181 371.973 74.5279 371.536C74.8162 373.357 75.5757 375.072 76.7314 376.511C78.8074 378.825 81.7163 380.225 84.8233 380.407C87.9303 380.588 90.9832 379.536 93.3157 377.48C95.0426 378.962 97.1564 379.923 99.4102 380.251C101.664 380.578 103.965 380.26 106.044 379.332C106.935 378.917 107.764 378.381 108.508 377.741C108.224 381.75 106.705 385.574 104.159 388.689C108.288 387.267 111.85 384.561 114.322 380.968C116.793 377.375 118.043 373.085 117.888 368.73C119.849 368.372 121.683 367.51 123.208 366.229C124.733 364.948 125.897 363.293 126.586 361.426C127.368 358.675 127.178 355.739 126.048 353.111C124.918 350.483 122.918 348.323 120.381 346.991Z" fill="#D5CBFB"/>
<path d="M299.213 108.418H298.561C297.552 108.418 296.553 108.616 295.621 109.001C294.689 109.386 293.842 109.951 293.128 110.663C292.415 111.375 291.849 112.22 291.463 113.15C291.077 114.08 290.878 115.077 290.878 116.083C290.878 117.09 291.077 118.087 291.463 119.017C291.849 119.947 292.415 120.792 293.128 121.504C293.842 122.216 294.689 122.78 295.621 123.165C296.553 123.551 297.552 123.749 298.561 123.749H299.184C301.117 123.604 302.923 122.735 304.24 121.318C305.558 119.9 306.29 118.038 306.29 116.105C306.29 114.172 305.558 112.31 304.24 110.892C302.923 109.475 301.117 108.606 299.184 108.461L299.213 108.418Z" fill="#2525AD"/>
<path d="M326.148 116.098C326.148 114.782 325.625 113.52 324.692 112.59C323.76 111.659 322.495 111.137 321.176 111.137H318.277L317.987 110.168C317.627 108.917 317.141 107.705 316.537 106.552L316.073 105.67L318.088 103.659C319.014 102.723 319.533 101.46 319.533 100.145C319.533 98.829 319.014 97.5664 318.088 96.6299C317.151 95.7026 315.885 95.1822 314.565 95.1822C313.246 95.1822 311.98 95.7026 311.043 96.6299L309.028 98.6404L308.143 98.1775C306.986 97.5771 305.772 97.0926 304.519 96.7312L303.548 96.4419V93.5493C303.547 92.4047 303.15 91.2956 302.423 90.41C301.697 89.5243 300.686 88.9165 299.561 88.6896C299.238 88.6194 298.907 88.5854 298.576 88.5883C297.257 88.5883 295.992 89.111 295.06 90.0413C294.127 90.9717 293.603 92.2335 293.603 93.5493V96.4419L292.646 96.7312C291.388 97.09 290.169 97.5745 289.008 98.1775L288.123 98.6404L286.108 96.6299C285.174 95.6997 283.908 95.1779 282.588 95.1793C281.268 95.1806 280.003 95.7051 279.07 96.6372C278.138 97.5693 277.615 98.8328 277.616 100.15C277.617 101.467 278.143 102.729 279.077 103.659L281.092 105.67L280.614 106.552C280.01 107.705 279.524 108.917 279.164 110.168L278.874 111.137H275.975C274.658 111.141 273.395 111.664 272.463 112.594C271.532 113.524 271.007 114.783 271.003 116.098C271.01 117.411 271.537 118.668 272.467 119.597C273.398 120.526 274.659 121.051 275.975 121.059H278.874L279.164 122.013C279.524 123.269 280.01 124.485 280.614 125.644L281.092 126.526L279.077 128.536C278.145 129.467 277.622 130.728 277.622 132.044C277.622 133.359 278.145 134.621 279.077 135.551C279.538 136.013 280.086 136.38 280.689 136.63C281.293 136.881 281.939 137.009 282.593 137.009C283.246 137.009 283.893 136.881 284.497 136.63C285.1 136.38 285.648 136.013 286.108 135.551L288.109 133.454L288.993 133.931C290.154 134.534 291.373 135.019 292.632 135.377L293.589 135.667V138.559C293.592 139.874 294.118 141.134 295.049 142.063C295.981 142.993 297.243 143.516 298.561 143.52C298.887 143.515 299.212 143.481 299.532 143.419H299.677C300.773 143.167 301.75 142.553 302.451 141.675C303.151 140.798 303.533 139.71 303.533 138.588V135.696L304.505 135.406C305.758 135.045 306.972 134.56 308.129 133.96L309.013 133.483L311.028 135.493C311.961 136.425 313.226 136.95 314.546 136.951C315.866 136.952 317.132 136.431 318.066 135.5C319.001 134.57 319.526 133.308 319.528 131.991C319.529 130.674 319.006 129.41 318.074 128.478L316.088 126.497L316.552 125.615C317.156 124.456 317.642 123.24 318.001 121.984L318.291 121.03H321.191C322.501 121.022 323.755 120.501 324.683 119.578C325.611 118.655 326.137 117.405 326.148 116.098ZM308.839 125.557C306.469 128.138 303.205 129.725 299.706 129.997C299.32 130.019 298.933 130.019 298.547 129.997C294.829 129.997 291.263 128.523 288.634 125.901C286.005 123.278 284.528 119.72 284.528 116.011C284.528 112.302 286.005 108.744 288.634 106.121C291.263 103.498 294.829 102.025 298.547 102.025C298.952 102.025 299.344 102.025 299.721 102.025C302.337 102.244 304.839 103.193 306.942 104.762C309.044 106.331 310.663 108.457 311.613 110.899C312.564 113.341 312.807 116.001 312.317 118.574C311.827 121.148 310.622 123.532 308.839 125.456V125.557Z" fill="#2525AD"/>
<path d="M512.07 332.152L511.896 332.528C511.659 333.142 511.545 333.796 511.561 334.453C511.578 335.11 511.724 335.758 511.991 336.359C512.258 336.96 512.641 337.502 513.119 337.956C513.596 338.409 514.158 338.764 514.773 339C515.388 339.237 516.044 339.35 516.703 339.334C517.361 339.318 518.01 339.172 518.613 338.905C519.215 338.639 519.759 338.256 520.213 337.78C520.668 337.304 521.024 336.743 521.261 336.129C521.317 336.004 521.361 335.873 521.391 335.739C521.734 334.538 521.615 333.252 521.056 332.134C520.497 331.017 519.54 330.148 518.372 329.698C517.204 329.249 515.91 329.251 514.744 329.705C513.578 330.159 512.624 331.032 512.07 332.152Z" fill="#2525AD"/>
<path d="M523.058 317.559C522.259 317.234 521.364 317.234 520.565 317.559C520.174 317.729 519.822 317.975 519.528 318.283C519.235 318.591 519.005 318.955 518.854 319.352L518.187 321.088H517.535C516.679 321.032 515.82 321.056 514.969 321.16H514.317L513.563 319.468C513.213 318.681 512.564 318.066 511.76 317.757C510.955 317.447 510.06 317.47 509.272 317.819C508.484 318.168 507.867 318.815 507.557 319.618C507.247 320.421 507.269 321.314 507.619 322.1L508.373 323.792L507.88 324.226C507.233 324.785 506.64 325.405 506.111 326.077L505.706 326.598L503.98 325.933C503.28 325.667 502.51 325.648 501.798 325.879C501.086 326.111 500.475 326.579 500.066 327.206C499.95 327.388 499.852 327.582 499.776 327.784C499.62 328.182 499.545 328.606 499.555 329.033C499.564 329.46 499.659 329.881 499.833 330.271C500.007 330.661 500.257 331.013 500.568 331.306C500.879 331.599 501.246 331.828 501.646 331.979L503.372 332.644V333.295C503.284 334.146 503.284 335.004 503.372 335.855L503.444 336.506L501.748 337.258C501.16 337.517 500.662 337.944 500.317 338.486C499.973 339.027 499.797 339.659 499.813 340.3C499.828 340.941 500.034 341.564 500.404 342.088C500.775 342.612 501.293 343.015 501.893 343.245C502.692 343.57 503.587 343.57 504.386 343.245L506.082 342.479L506.517 342.985C507.078 343.631 507.699 344.222 508.373 344.75L508.88 345.155L508.213 346.876C507.906 347.68 507.931 348.572 508.281 349.358C508.631 350.144 509.28 350.76 510.084 351.07C510.481 351.223 510.905 351.295 511.33 351.283C511.756 351.271 512.175 351.174 512.563 350.998C512.954 350.83 513.308 350.584 513.602 350.276C513.896 349.967 514.124 349.603 514.273 349.204L514.954 347.483H515.607C516.46 347.57 517.32 347.57 518.173 347.483L518.825 347.411L519.579 349.103C519.928 349.887 520.574 350.5 521.376 350.809C522.177 351.118 523.069 351.098 523.856 350.752C524.247 350.584 524.601 350.338 524.895 350.03C525.189 349.722 525.417 349.357 525.566 348.959C525.731 348.565 525.816 348.142 525.816 347.715C525.816 347.288 525.731 346.865 525.566 346.471L524.812 344.779L525.305 344.345C525.96 343.793 526.553 343.172 527.074 342.493L527.48 341.973L529.219 342.638C529.616 342.792 530.04 342.866 530.465 342.856C530.891 342.846 531.31 342.753 531.7 342.581C532.089 342.409 532.44 342.162 532.734 341.854C533.027 341.546 533.256 341.183 533.409 340.787C533.493 340.593 533.552 340.389 533.583 340.179V340.078C533.683 339.353 533.536 338.615 533.165 337.983C532.794 337.351 532.222 336.861 531.539 336.592L529.799 335.927V335.276C529.886 334.425 529.886 333.567 529.799 332.716L529.712 332.065L531.423 331.313C532.209 330.965 532.824 330.32 533.133 329.52C533.29 329.122 533.365 328.697 533.355 328.271C533.346 327.844 533.251 327.423 533.077 327.033C532.903 326.642 532.653 326.291 532.342 325.998C532.03 325.704 531.664 325.476 531.263 325.325C530.871 325.161 530.45 325.076 530.024 325.076C529.598 325.076 529.177 325.161 528.784 325.325L527.088 326.077L526.653 325.586C526.089 324.939 525.468 324.343 524.798 323.807L524.276 323.416L524.943 321.681C525.227 320.884 525.189 320.008 524.838 319.239C524.486 318.469 523.848 317.867 523.058 317.559ZM524.798 330.301C525.814 332.349 526.016 334.705 525.363 336.896C525.294 337.137 525.212 337.373 525.117 337.605C524.686 338.723 524.038 339.747 523.21 340.615C522.383 341.484 521.392 342.182 520.294 342.669C519.196 343.156 518.013 343.422 516.812 343.453C515.611 343.484 514.416 343.278 513.295 342.848C512.173 342.418 511.148 341.771 510.277 340.946C509.406 340.12 508.707 339.131 508.219 338.036C507.731 336.941 507.464 335.76 507.433 334.562C507.402 333.364 507.608 332.172 508.04 331.053L508.344 330.344C509.349 328.275 511.099 326.659 513.244 325.817C515.385 324.973 517.765 324.963 519.913 325.788C522.062 326.613 523.821 328.213 524.841 330.272L524.798 330.301Z" fill="#2525AD"/>
</g>
<defs>
<filter id="filter0_b_2317_44" x="-35.5" y="-35.5" width="698" height="578" filterUnits="userSpaceOnUse" color-interpolation-filters="sRGB">
<feFlood flood-opacity="0" result="BackgroundImageFix"/>
<feGaussianBlur in="BackgroundImageFix" stdDeviation="17.75"/>
<feComposite in2="SourceAlpha" operator="in" result="effect1_backgroundBlur_2317_44"/>
<feBlend mode="normal" in="SourceGraphic" in2="effect1_backgroundBlur_2317_44" result="shape"/>
</filter>
<clipPath id="clip0_2317_44">
<rect width="627" height="507" fill="white"/>
</clipPath>
</defs>
</svg>
