<svg width="36" height="36" viewBox="0 0 36 36" fill="none" xmlns="http://www.w3.org/2000/svg">
<path d="M0.5 18C0.5 21.4612 1.52636 24.8446 3.44928 27.7225C5.37221 30.6003 8.10533 32.8434 11.303 34.1679C14.5007 35.4924 18.0194 35.839 21.4141 35.1637C24.8087 34.4885 27.9269 32.8218 30.3744 30.3744C32.8218 27.9269 34.4885 24.8087 35.1637 21.4141C35.839 18.0194 35.4924 14.5007 34.1679 11.303C32.8434 8.10533 30.6003 5.37221 27.7225 3.44928C24.8446 1.52636 21.4612 0.5 18 0.5C13.3587 0.5 8.90752 2.34374 5.62563 5.62563C2.34374 8.90752 0.5 13.3587 0.5 18ZM8 16.75H23.1875L16.2125 9.74125L18 8L28 18L18 28L16.2125 26.2162L23.1875 19.25H8V16.75Z" fill="white"/>
</svg>
