<svg width="653" height="712" viewBox="0 0 653 712" fill="none" xmlns="http://www.w3.org/2000/svg">
<path d="M651.947 330.339C651.671 330.361 651.466 330.603 651.488 330.878C652.159 339.177 652.5 347.554 652.5 356C652.5 364.446 652.159 372.823 651.488 381.122C651.466 381.397 651.671 381.638 651.947 381.661C650.582 398.21 647.909 414.447 644.016 430.294C643.747 430.227 643.476 430.391 643.41 430.659C639.374 446.975 634.041 462.876 627.51 478.279C627.402 478.533 627.521 478.827 627.775 478.935C621.345 494.034 613.764 508.654 605.125 522.713C604.89 522.568 604.582 522.641 604.437 522.877C595.696 537.054 585.876 550.661 575.071 563.614C574.894 563.826 574.923 564.141 575.135 564.318C564.668 576.832 553.282 588.734 541.063 599.951C540.877 599.747 540.561 599.733 540.357 599.919C528.112 611.131 515.033 621.655 501.204 631.418C500.979 631.577 500.925 631.889 501.084 632.115C487.774 641.487 473.772 650.155 459.157 658.053C459.026 657.81 458.722 657.72 458.479 657.851C443.885 665.715 428.678 672.812 412.935 679.076C412.678 679.178 412.553 679.468 412.655 679.725C397.531 685.722 381.915 690.952 365.872 695.355C365.799 695.089 365.524 694.932 365.258 695.005C349.286 699.37 332.892 702.917 316.142 705.587C315.87 705.63 315.684 705.886 315.727 706.159C299.682 708.699 283.312 710.436 266.675 711.32C266.661 711.044 266.425 710.833 266.15 710.847C257.831 711.28 249.445 711.5 241 711.5C232.555 711.5 224.169 711.28 215.85 710.847C215.575 710.833 215.339 711.044 215.325 711.32C198.688 710.436 182.318 708.699 166.273 706.159C166.316 705.886 166.13 705.63 165.858 705.587C149.108 702.917 132.714 699.37 116.742 695.005C116.476 694.932 116.201 695.089 116.128 695.355C100.085 690.952 84.4688 685.722 69.3448 679.725C69.4469 679.468 69.3216 679.178 69.0651 679.076C53.3222 672.812 38.1155 665.715 23.5208 657.851C23.2776 657.72 22.9744 657.81 22.8434 658.054C8.22775 650.155 -5.7735 641.487 -19.0841 632.115C-18.9249 631.889 -18.9786 631.577 -19.2042 631.418C-33.0328 621.655 -46.1123 611.131 -58.3569 599.919C-58.5606 599.733 -58.8768 599.747 -59.0633 599.951C-71.2819 588.734 -82.6675 576.832 -93.1348 564.318C-92.9227 564.141 -92.8942 563.826 -93.0711 563.614C-103.876 550.661 -113.696 537.054 -122.437 522.877C-122.582 522.642 -122.89 522.568 -123.125 522.713C-131.764 508.654 -139.345 494.034 -145.775 478.934C-145.521 478.827 -145.402 478.533 -145.51 478.279C-152.041 462.876 -157.374 446.975 -161.41 430.659C-161.476 430.391 -161.747 430.227 -162.015 430.294C-165.909 414.447 -168.582 398.21 -169.946 381.661C-169.671 381.638 -169.466 381.397 -169.488 381.122C-170.159 372.823 -170.5 364.446 -170.5 356C-170.5 347.554 -170.159 339.177 -169.488 330.878C-169.466 330.603 -169.671 330.362 -169.946 330.339C-168.582 313.79 -165.909 297.553 -162.015 281.707C-161.747 281.773 -161.476 281.609 -161.41 281.341C-157.374 265.025 -152.041 249.124 -145.51 233.721C-145.402 233.467 -145.521 233.174 -145.775 233.066C-139.345 217.966 -131.764 203.346 -123.125 189.287C-122.89 189.432 -122.582 189.358 -122.437 189.123C-113.696 174.946 -103.876 161.339 -93.0711 148.386C-92.8943 148.174 -92.9227 147.859 -93.1346 147.682C-82.6673 135.169 -71.2817 123.267 -59.0631 112.05C-58.8766 112.253 -58.5605 112.267 -58.3569 112.081C-46.1124 100.869 -33.0329 90.3448 -19.2043 80.5822C-18.9788 80.423 -18.925 80.1112 -19.084 79.8856C-5.77336 70.5131 8.22784 61.8449 22.8435 53.9468C22.9746 54.1897 23.2777 54.2804 23.5207 54.1495C38.1154 46.2847 53.3221 39.1878 69.0651 32.9244C69.3215 32.8224 69.4468 32.5318 69.3449 32.2752C84.4689 26.2778 100.086 21.0485 116.128 16.6449C116.201 16.9111 116.476 17.0679 116.742 16.9952C132.714 12.6297 149.108 9.0834 165.858 6.41338C166.13 6.36992 166.316 6.11376 166.273 5.84116C182.318 3.30097 198.688 1.56392 215.325 0.680019C215.339 0.955661 215.575 1.16743 215.85 1.15307C224.169 0.71978 232.555 0.5 241 0.5C249.445 0.5 257.831 0.719779 266.15 1.15307C266.425 1.16743 266.661 0.955659 266.675 0.680017C283.312 1.56392 299.682 3.30097 315.727 5.84116C315.684 6.11377 315.87 6.36992 316.142 6.41338C332.892 9.0834 349.286 12.6297 365.258 16.9952C365.524 17.068 365.799 16.9111 365.872 16.6447C381.915 21.0482 397.531 26.2776 412.655 32.275C412.553 32.5316 412.678 32.8223 412.935 32.9244C428.678 39.1878 443.885 46.2847 458.479 54.1495C458.722 54.2804 459.026 54.1896 459.157 53.9465C473.772 61.8446 487.773 70.5129 501.084 79.8853C500.925 80.1109 500.979 80.4229 501.204 80.5822C515.033 90.3447 528.112 100.869 540.357 112.081C540.561 112.267 540.877 112.253 541.063 112.049C553.282 123.266 564.667 135.168 575.135 147.682C574.923 147.859 574.894 148.174 575.071 148.386C585.876 161.339 595.696 174.946 604.437 189.123C604.582 189.358 604.89 189.432 605.125 189.287C613.764 203.346 621.345 217.965 627.775 233.065C627.521 233.173 627.402 233.467 627.51 233.721C634.041 249.124 639.374 265.025 643.41 281.341C643.476 281.609 643.747 281.773 644.016 281.706C647.909 297.553 650.582 313.79 651.947 330.339Z" stroke="#9D5AE3" stroke-linecap="round" stroke-dasharray="48 48"/>
</svg>
