<svg width="894" height="904" viewBox="0 0 894 904" fill="none" xmlns="http://www.w3.org/2000/svg">
<path d="M893.181 426.997C892.906 427.015 892.697 427.253 892.715 427.529C893.236 435.631 893.5 443.79 893.5 452C893.5 460.21 893.236 468.369 892.714 476.472C892.697 476.747 892.906 476.985 893.181 477.003C892.124 493.109 890.05 508.991 887.013 524.605C886.742 524.552 886.479 524.729 886.426 525C883.278 541.072 879.107 556.86 873.971 572.315C873.884 572.577 874.026 572.86 874.288 572.947C869.224 588.122 863.23 602.977 856.361 617.465C856.112 617.346 855.813 617.452 855.695 617.702C848.711 632.385 840.827 646.691 832.099 660.574C831.952 660.808 832.022 661.117 832.256 661.264C823.77 674.726 814.491 687.789 804.471 700.41C804.255 700.238 803.94 700.274 803.768 700.49C793.681 713.167 782.843 725.398 771.308 737.138C771.114 737.335 771.117 737.652 771.314 737.845C760.175 749.159 748.389 760.016 736.002 770.377C735.825 770.165 735.51 770.137 735.298 770.314C722.877 780.683 709.854 790.555 696.274 799.889C696.047 800.046 695.989 800.357 696.145 800.585C683.064 809.559 669.469 818.036 655.402 825.98C655.266 825.74 654.961 825.655 654.721 825.79C640.63 833.732 626.066 841.139 611.071 847.976C610.82 848.091 610.709 848.387 610.824 848.639C596.387 855.207 581.553 861.248 566.358 866.731C566.265 866.471 565.978 866.336 565.718 866.43C550.5 871.906 534.921 876.823 519.018 881.147C518.752 881.22 518.594 881.494 518.667 881.761C503.36 885.91 487.754 889.512 471.884 892.538C471.832 892.266 471.57 892.088 471.299 892.14C455.409 895.156 439.254 897.595 422.867 899.429C422.593 899.459 422.395 899.707 422.426 899.981C406.663 901.733 390.686 902.924 374.525 903.531C374.515 903.255 374.283 903.04 374.007 903.05C365.883 903.349 357.713 903.5 349.5 903.5C341.287 903.5 333.117 903.349 324.993 903.05C324.717 903.04 324.485 903.255 324.475 903.531C308.314 902.924 292.337 901.733 276.574 899.981C276.605 899.707 276.407 899.459 276.133 899.429C259.746 897.595 243.591 895.156 227.701 892.14C227.429 892.088 227.168 892.266 227.116 892.538C211.246 889.512 195.64 885.91 180.333 881.761C180.406 881.494 180.248 881.22 179.982 881.147C164.08 876.823 148.5 871.906 133.282 866.43C133.022 866.336 132.735 866.471 132.642 866.731C117.447 861.248 102.613 855.207 88.1761 848.639C88.2907 848.387 88.1799 848.091 87.9286 847.976C72.9343 841.139 58.3705 833.732 44.2794 825.79C44.0388 825.655 43.7339 825.74 43.5983 825.98C29.5315 818.036 15.9362 809.559 2.8546 800.585C3.01103 800.357 2.95337 800.046 2.7258 799.889C-10.8536 790.555 -23.8772 780.683 -36.2978 770.314C-36.5098 770.137 -36.8251 770.165 -37.0021 770.377C-49.3888 760.016 -61.1751 749.159 -72.314 737.845C-72.117 737.652 -72.1142 737.335 -72.3078 737.138C-83.843 725.398 -94.6806 713.167 -104.768 700.49C-104.94 700.274 -105.255 700.238 -105.471 700.41C-115.491 687.789 -124.77 674.726 -133.256 661.264C-133.022 661.117 -132.952 660.808 -133.099 660.574C-141.827 646.691 -149.711 632.385 -156.695 617.702C-156.813 617.452 -157.112 617.346 -157.361 617.465C-164.23 602.976 -170.224 588.122 -175.288 572.947C-175.026 572.86 -174.884 572.577 -174.971 572.315C-180.107 556.86 -184.278 541.072 -187.426 525C-187.479 524.729 -187.742 524.552 -188.013 524.605C-191.05 508.991 -193.123 493.109 -194.181 477.003C-193.906 476.985 -193.697 476.747 -193.715 476.471C-194.236 468.369 -194.5 460.21 -194.5 452C-194.5 443.79 -194.236 435.631 -193.715 427.528C-193.697 427.253 -193.906 427.015 -194.181 426.997C-193.123 410.891 -191.05 395.009 -188.012 379.395C-187.742 379.448 -187.479 379.271 -187.426 379C-184.278 362.928 -180.107 347.14 -174.971 331.685C-174.884 331.423 -175.026 331.14 -175.288 331.053C-170.224 315.878 -164.23 301.024 -157.361 286.535C-157.111 286.653 -156.813 286.547 -156.695 286.298C-149.711 271.615 -141.827 257.309 -133.099 243.426C-132.952 243.192 -133.022 242.884 -133.256 242.737C-124.77 229.275 -115.491 216.212 -105.471 203.59C-105.255 203.762 -104.94 203.726 -104.768 203.51C-94.6806 190.833 -83.843 178.602 -72.3077 166.862C-72.1143 166.665 -72.117 166.348 -72.3138 166.155C-61.1749 154.842 -49.3887 143.985 -37.0019 133.623C-36.8249 133.835 -36.5097 133.863 -36.2978 133.686C-23.8772 123.317 -10.8535 113.445 2.72585 104.111C2.95334 103.954 3.01103 103.643 2.85478 103.415C15.9364 94.4409 29.5316 85.964 43.5985 78.0198C43.7341 78.2602 44.0389 78.3452 44.2794 78.2097C58.3705 70.2682 72.9343 62.8612 87.9286 56.0237C88.1799 55.9091 88.2907 55.6125 88.1761 55.3613C102.613 48.7929 117.447 42.7519 132.642 37.2694C132.735 37.5292 133.022 37.664 133.282 37.5705C148.5 32.0936 164.079 27.1772 179.982 22.8528C180.248 22.7803 180.406 22.5055 180.333 22.2391C195.64 18.0897 211.246 14.4882 227.116 11.4624C227.168 11.7337 227.429 11.9119 227.701 11.8604C243.591 8.8438 259.746 6.40473 276.133 4.57121C276.407 4.54051 276.605 4.29326 276.574 4.0189C292.337 2.26739 308.314 1.07576 324.475 0.468907C324.485 0.744772 324.717 0.960147 324.993 0.949994C333.117 0.651054 341.287 0.5 349.5 0.5C357.713 0.5 365.883 0.651054 374.007 0.949996C374.283 0.960148 374.515 0.744774 374.525 0.468909C390.686 1.07576 406.663 2.26739 422.426 4.01891C422.396 4.29326 422.593 4.54052 422.867 4.57122C439.254 6.40474 455.409 8.84381 471.299 11.8604C471.571 11.9119 471.832 11.7337 471.884 11.4624C487.754 14.4882 503.36 18.0897 518.667 22.2391C518.594 22.5055 518.752 22.7803 519.018 22.8527C534.92 27.1772 550.5 32.0936 565.718 37.5705C565.978 37.664 566.265 37.5292 566.358 37.2694C581.553 42.7519 596.387 48.7929 610.824 55.3613C610.709 55.6125 610.82 55.9091 611.071 56.0237C626.066 62.8612 640.63 70.2682 654.721 78.2097C654.961 78.3453 655.266 78.2601 655.402 78.0196C669.469 85.9639 683.064 94.4408 696.145 103.415C695.989 103.643 696.047 103.954 696.274 104.111C709.854 113.445 722.877 123.317 735.298 133.686C735.51 133.863 735.825 133.835 736.002 133.623C748.389 143.984 760.175 154.841 771.314 166.155C771.117 166.348 771.114 166.665 771.308 166.862C782.843 178.602 793.681 190.833 803.768 203.51C803.94 203.726 804.255 203.762 804.471 203.59C814.491 216.211 823.77 229.274 832.256 242.736C832.022 242.883 831.952 243.192 832.099 243.426C840.827 257.309 848.711 271.615 855.695 286.298C855.813 286.548 856.112 286.654 856.361 286.535C863.23 301.024 869.224 315.878 874.288 331.053C874.026 331.14 873.884 331.423 873.971 331.685C879.107 347.14 883.278 362.928 886.426 379C886.479 379.271 886.742 379.448 887.013 379.395C890.05 395.009 892.124 410.891 893.181 426.997Z" stroke="#9D5AE3" stroke-linecap="round" stroke-dasharray="48 48"/>
</svg>
